<svg width="130" height="36" viewBox="0 0 130 36" fill="none" xmlns="http://www.w3.org/2000/svg">
<rect x="0.75" y="0.75" width="128.5" height="34.5" rx="15.25" fill="white"/>
<rect x="0.75" y="0.75" width="128.5" height="34.5" rx="15.25" stroke="#D0D5DD" stroke-width="1.5"/>
<path fill-rule="evenodd" clip-rule="evenodd" d="M14.0833 8.83301C13.6231 8.83301 13.25 9.2061 13.25 9.66634C13.25 10.1266 13.6231 10.4997 14.0833 10.4997C14.6904 10.4997 15.2207 10.9407 15.3298 11.5613L15.9014 14.8103L15.9019 14.8131L16.2681 16.8597C16.4972 18.1398 16.6801 19.162 16.9113 19.974C17.1498 20.8114 17.4588 21.5004 17.9838 22.0827C18.3443 22.4827 18.7661 22.825 19.2336 23.0982C19.9109 23.494 20.6575 23.6683 21.5451 23.7517C22.4099 23.833 23.4817 23.833 24.8319 23.833H25.2424C25.8429 23.833 26.338 23.833 26.7459 23.8033C27.1708 23.7724 27.5575 23.7065 27.9327 23.5466C28.4799 23.3133 28.9591 22.9466 29.3221 22.4787C29.5727 22.1556 29.7291 21.7994 29.8574 21.4015C29.9798 21.0218 30.0915 20.5538 30.2256 19.9915L30.2425 19.9206C30.4465 19.0659 30.6131 18.3676 30.6937 17.7974C30.7767 17.2107 30.7858 16.6588 30.5969 16.1269C30.3313 15.3792 29.8086 14.7497 29.1246 14.3396C28.6428 14.0507 28.098 13.9376 27.4935 13.8847C26.9033 13.833 26.1638 13.833 25.2512 13.833H17.4217L16.9713 11.2726C16.7241 9.86754 15.5119 8.83301 14.0833 8.83301ZM25.2122 15.4997C26.173 15.4997 26.8393 15.5004 27.3481 15.545C27.851 15.589 28.1024 15.6699 28.2676 15.769C28.628 15.9851 28.8934 16.3104 29.0264 16.6848C29.0843 16.8479 29.1108 17.0881 29.0435 17.5639C28.9751 18.0474 28.8276 18.6693 28.6118 19.574C28.4684 20.1749 28.3713 20.5795 28.2711 20.8901C28.1746 21.1895 28.0921 21.3451 28.0052 21.4571C27.8193 21.6968 27.57 21.8894 27.2791 22.0134C27.139 22.0731 26.955 22.1171 26.6249 22.1411C26.2847 22.1658 25.8504 22.1663 25.2122 22.1663H24.874C23.4724 22.1663 22.4788 22.1655 21.7011 22.0924C20.9373 22.0206 20.4598 21.8844 20.0746 21.6593C19.7536 21.4717 19.4661 21.2378 19.2217 20.9668C18.9315 20.6449 18.7152 20.2233 18.5142 19.5175C18.3087 18.7956 18.1396 17.8562 17.9009 16.5225L17.7179 15.4997H25.2122Z" fill="#475467"/>
<path d="M20.75 25.2913C20.75 25.8666 20.2836 26.333 19.7083 26.333C19.133 26.333 18.6667 25.8666 18.6667 25.2913C18.6667 24.716 19.133 24.2497 19.7083 24.2497C20.2836 24.2497 20.75 24.716 20.75 25.2913Z" fill="#475467"/>
<path d="M27.2083 26.333C27.7836 26.333 28.25 25.8666 28.25 25.2913C28.25 24.716 27.7836 24.2497 27.2083 24.2497C26.633 24.2497 26.1667 24.716 26.1667 25.2913C26.1667 25.8666 26.633 26.333 27.2083 26.333Z" fill="#475467"/>
<path d="M42.3333 23H40.3645L43.949 12.8182H46.226L49.8155 23H47.8468L45.1273 14.9062H45.0478L42.3333 23ZM42.3979 19.0078H47.7672V20.4893H42.3979V19.0078ZM53.6784 23.1342C53.0785 23.1342 52.5416 22.9801 52.0676 22.6719C51.5937 22.3636 51.2192 21.9162 50.9441 21.3295C50.669 20.7429 50.5314 20.0303 50.5314 19.1918C50.5314 18.3433 50.6706 17.6274 50.949 17.044C51.2308 16.4574 51.6103 16.0149 52.0875 15.7166C52.5648 15.415 53.0968 15.2642 53.6834 15.2642C54.1309 15.2642 54.4988 15.3404 54.7871 15.4929C55.0755 15.642 55.3042 15.8227 55.4732 16.0348C55.6422 16.2436 55.7731 16.4408 55.8659 16.6264H55.9405V12.8182H57.7452V23H55.9753V21.7969H55.8659C55.7731 21.9825 55.6389 22.1797 55.4632 22.3885C55.2876 22.594 55.0556 22.7696 54.7672 22.9155C54.4789 23.0613 54.1159 23.1342 53.6784 23.1342ZM54.1806 21.6577C54.5617 21.6577 54.8865 21.5549 55.155 21.3494C55.4235 21.1406 55.6273 20.8506 55.7665 20.4794C55.9057 20.1082 55.9753 19.6757 55.9753 19.1818C55.9753 18.688 55.9057 18.2588 55.7665 17.8942C55.6306 17.5296 55.4284 17.2462 55.16 17.044C54.8948 16.8419 54.5684 16.7408 54.1806 16.7408C53.7795 16.7408 53.4448 16.8452 53.1763 17.054C52.9078 17.2628 52.7057 17.5511 52.5698 17.919C52.4339 18.2869 52.3659 18.7079 52.3659 19.1818C52.3659 19.6591 52.4339 20.085 52.5698 20.4595C52.709 20.8307 52.9128 21.1241 53.1813 21.3395C53.4531 21.5516 53.7862 21.6577 54.1806 21.6577ZM62.4968 23.1342C61.8969 23.1342 61.36 22.9801 60.886 22.6719C60.4121 22.3636 60.0375 21.9162 59.7624 21.3295C59.4873 20.7429 59.3498 20.0303 59.3498 19.1918C59.3498 18.3433 59.489 17.6274 59.7674 17.044C60.0491 16.4574 60.4286 16.0149 60.9059 15.7166C61.3832 15.415 61.9151 15.2642 62.5018 15.2642C62.9492 15.2642 63.3171 15.3404 63.6055 15.4929C63.8938 15.642 64.1225 15.8227 64.2915 16.0348C64.4606 16.2436 64.5915 16.4408 64.6843 16.6264H64.7589V12.8182H66.5636V23H64.7937V21.7969H64.6843C64.5915 21.9825 64.4573 22.1797 64.2816 22.3885C64.1059 22.594 63.8739 22.7696 63.5856 22.9155C63.2972 23.0613 62.9343 23.1342 62.4968 23.1342ZM62.9989 21.6577C63.3801 21.6577 63.7049 21.5549 63.9734 21.3494C64.2418 21.1406 64.4457 20.8506 64.5849 20.4794C64.7241 20.1082 64.7937 19.6757 64.7937 19.1818C64.7937 18.688 64.7241 18.2588 64.5849 17.8942C64.449 17.5296 64.2468 17.2462 63.9783 17.044C63.7132 16.8419 63.3867 16.7408 62.9989 16.7408C62.5979 16.7408 62.2631 16.8452 61.9947 17.054C61.7262 17.2628 61.524 17.5511 61.3881 17.919C61.2522 18.2869 61.1843 18.7079 61.1843 19.1818C61.1843 19.6591 61.2522 20.085 61.3881 20.4595C61.5273 20.8307 61.7312 21.1241 61.9996 21.3395C62.2714 21.5516 62.6045 21.6577 62.9989 21.6577ZM75.7672 15.3636V16.7557H71.3773V15.3636H75.7672ZM72.4611 13.5341H74.2608V20.7031C74.2608 20.9451 74.2973 21.1307 74.3702 21.2599C74.4464 21.3859 74.5459 21.4721 74.6685 21.5185C74.7911 21.5649 74.927 21.5881 75.0762 21.5881C75.1889 21.5881 75.2916 21.5798 75.3844 21.5632C75.4805 21.5466 75.5534 21.5317 75.6032 21.5185L75.9064 22.9254C75.8103 22.9586 75.6728 22.995 75.4938 23.0348C75.3181 23.0746 75.1027 23.0978 74.8475 23.1044C74.3967 23.1177 73.9907 23.0497 73.6294 22.9006C73.2682 22.7481 72.9815 22.5128 72.7694 22.1946C72.5605 21.8764 72.4578 21.4787 72.4611 21.0014V13.5341ZM80.5213 23.1491C79.7756 23.1491 79.1293 22.9851 78.5824 22.657C78.0355 22.3288 77.6113 21.8698 77.3097 21.2798C77.0114 20.6899 76.8622 20.0005 76.8622 19.2116C76.8622 18.4228 77.0114 17.7318 77.3097 17.1385C77.6113 16.5452 78.0355 16.0845 78.5824 15.7564C79.1293 15.4283 79.7756 15.2642 80.5213 15.2642C81.267 15.2642 81.9134 15.4283 82.4602 15.7564C83.0071 16.0845 83.4297 16.5452 83.728 17.1385C84.0296 17.7318 84.1804 18.4228 84.1804 19.2116C84.1804 20.0005 84.0296 20.6899 83.728 21.2798C83.4297 21.8698 83.0071 22.3288 82.4602 22.657C81.9134 22.9851 81.267 23.1491 80.5213 23.1491ZM80.5312 21.7074C80.9356 21.7074 81.2737 21.5964 81.5455 21.3743C81.8172 21.1489 82.0194 20.8473 82.152 20.4695C82.2879 20.0916 82.3558 19.6707 82.3558 19.2067C82.3558 18.7393 82.2879 18.3168 82.152 17.9389C82.0194 17.5578 81.8172 17.2545 81.5455 17.0291C81.2737 16.8037 80.9356 16.6911 80.5312 16.6911C80.117 16.6911 79.7723 16.8037 79.4972 17.0291C79.2254 17.2545 79.0215 17.5578 78.8857 17.9389C78.7531 18.3168 78.6868 18.7393 78.6868 19.2067C78.6868 19.6707 78.7531 20.0916 78.8857 20.4695C79.0215 20.8473 79.2254 21.1489 79.4972 21.3743C79.7723 21.5964 80.117 21.7074 80.5312 21.7074ZM97.9753 16.2536H96.1159C96.0629 15.9486 95.9651 15.6785 95.8226 15.4432C95.6801 15.2045 95.5028 15.0024 95.2907 14.8366C95.0785 14.6709 94.8366 14.5466 94.5648 14.4638C94.2963 14.3776 94.0063 14.3345 93.6948 14.3345C93.1413 14.3345 92.6507 14.4737 92.2232 14.7521C91.7956 15.0272 91.4609 15.4316 91.2189 15.9652C90.977 16.4955 90.856 17.1435 90.856 17.9091C90.856 18.688 90.977 19.3442 91.2189 19.8778C91.4642 20.4081 91.7989 20.8092 92.2232 21.081C92.6507 21.3494 93.1396 21.4837 93.6898 21.4837C93.9947 21.4837 94.2798 21.4439 94.5449 21.3643C94.8134 21.2815 95.0537 21.1605 95.2658 21.0014C95.4812 20.8423 95.6619 20.6468 95.8077 20.4148C95.9569 20.1828 96.0596 19.9176 96.1159 19.6193L97.9753 19.6293C97.9057 20.1132 97.7549 20.5672 97.5229 20.9915C97.2942 21.4157 96.9943 21.7902 96.623 22.1151C96.2518 22.4366 95.8176 22.6884 95.3205 22.8707C94.8233 23.0497 94.2715 23.1392 93.665 23.1392C92.7701 23.1392 91.9713 22.9321 91.2686 22.5178C90.566 22.1035 90.0125 21.5052 89.6081 20.723C89.2038 19.9408 89.0016 19.0028 89.0016 17.9091C89.0016 16.812 89.2054 15.8741 89.6131 15.0952C90.0208 14.313 90.5759 13.7147 91.2786 13.3004C91.9812 12.8861 92.7767 12.679 93.665 12.679C94.2317 12.679 94.7587 12.7585 95.2459 12.9176C95.7331 13.0767 96.1673 13.3104 96.5485 13.6186C96.9296 13.9235 97.2428 14.2981 97.4881 14.7422C97.7367 15.183 97.8991 15.6868 97.9753 16.2536ZM101.782 23.1541C101.298 23.1541 100.863 23.0679 100.475 22.8956C100.09 22.7199 99.7854 22.4614 99.56 22.12C99.3379 21.7786 99.2269 21.3577 99.2269 20.8572C99.2269 20.4264 99.3065 20.0701 99.4656 19.7884C99.6246 19.5066 99.8417 19.2812 100.117 19.1122C100.392 18.9432 100.702 18.8156 101.047 18.7294C101.395 18.6399 101.754 18.5753 102.125 18.5355C102.573 18.4891 102.936 18.4477 103.214 18.4112C103.493 18.3714 103.695 18.3118 103.821 18.2322C103.95 18.1494 104.015 18.0218 104.015 17.8494V17.8196C104.015 17.4451 103.904 17.1551 103.681 16.9496C103.459 16.7441 103.14 16.6413 102.722 16.6413C102.281 16.6413 101.931 16.7375 101.673 16.9297C101.418 17.1219 101.245 17.349 101.156 17.6108L99.4755 17.3722C99.6081 16.9081 99.8268 16.5204 100.132 16.2088C100.437 15.8939 100.81 15.6586 101.25 15.5028C101.691 15.3438 102.178 15.2642 102.712 15.2642C103.08 15.2642 103.446 15.3073 103.811 15.3935C104.175 15.4796 104.508 15.6222 104.81 15.821C105.112 16.0166 105.354 16.2834 105.536 16.6214C105.721 16.9595 105.814 17.3821 105.814 17.8892V23H104.084V21.951H104.025C103.915 22.1631 103.761 22.362 103.562 22.5476C103.367 22.7299 103.12 22.8774 102.821 22.9901C102.526 23.0994 102.18 23.1541 101.782 23.1541ZM102.25 21.8317C102.611 21.8317 102.924 21.7604 103.189 21.6179C103.454 21.4721 103.658 21.2798 103.801 21.0412C103.947 20.8026 104.02 20.5424 104.02 20.2607V19.3608C103.963 19.4072 103.867 19.4503 103.731 19.4901C103.599 19.5298 103.449 19.5646 103.284 19.5945C103.118 19.6243 102.954 19.6508 102.792 19.674C102.629 19.6972 102.488 19.7171 102.369 19.7337C102.1 19.7701 101.86 19.8298 101.648 19.9126C101.436 19.9955 101.269 20.1115 101.146 20.2607C101.023 20.4065 100.962 20.5954 100.962 20.8274C100.962 21.1589 101.083 21.4091 101.325 21.5781C101.567 21.7472 101.875 21.8317 102.25 21.8317ZM107.624 23V15.3636H109.369V16.6364H109.449C109.588 16.1955 109.826 15.8558 110.164 15.6172C110.506 15.3752 110.895 15.2543 111.333 15.2543C111.432 15.2543 111.543 15.2592 111.666 15.2692C111.792 15.2758 111.896 15.2874 111.979 15.304V16.9595C111.903 16.933 111.782 16.9098 111.616 16.8899C111.454 16.8667 111.296 16.8551 111.144 16.8551C110.816 16.8551 110.521 16.9264 110.259 17.0689C110 17.2081 109.797 17.402 109.647 17.6506C109.498 17.8991 109.424 18.1858 109.424 18.5107V23H107.624ZM117.398 15.3636V16.7557H113.008V15.3636H117.398ZM114.092 13.5341H115.892V20.7031C115.892 20.9451 115.928 21.1307 116.001 21.2599C116.077 21.3859 116.177 21.4721 116.299 21.5185C116.422 21.5649 116.558 21.5881 116.707 21.5881C116.82 21.5881 116.922 21.5798 117.015 21.5632C117.111 21.5466 117.184 21.5317 117.234 21.5185L117.537 22.9254C117.441 22.9586 117.304 22.995 117.125 23.0348C116.949 23.0746 116.734 23.0978 116.478 23.1044C116.028 23.1177 115.622 23.0497 115.26 22.9006C114.899 22.7481 114.612 22.5128 114.4 22.1946C114.191 21.8764 114.089 21.4787 114.092 21.0014V13.5341Z" fill="#475467"/>
</svg>
