<svg width="50" height="24" viewBox="0 0 50 24" fill="none" xmlns="http://www.w3.org/2000/svg">
<path d="M8.91406 8.11506C8.91406 7.25 9.10795 6.48935 9.49574 5.8331C9.88352 5.17258 10.4162 4.65696 11.0938 4.28622C11.7756 3.91548 12.5511 3.73011 13.4205 3.73011C14.2642 3.73011 15.0313 3.90909 15.7216 4.26705C16.4162 4.62074 16.968 5.12571 17.3771 5.78196C17.7905 6.43821 17.9929 7.21804 17.9844 8.12145C17.9801 8.56463 17.9183 9.01207 17.799 9.46378C17.6797 9.91122 17.4922 10.3885 17.2365 10.8956C16.9808 11.3984 16.6484 11.9545 16.2393 12.5639L13.2351 17H10.7997L14.0724 12.206C13.9105 12.2528 13.7443 12.2912 13.5739 12.321C13.4077 12.3509 13.2351 12.3658 13.0561 12.3658C12.255 12.3658 11.5412 12.1847 10.9148 11.8224C10.2926 11.4602 9.80256 10.9595 9.4446 10.3203C9.09091 9.68111 8.91406 8.94602 8.91406 8.11506ZM11.1896 8.05753C11.1896 8.53054 11.2855 8.95028 11.4773 9.31676C11.669 9.67898 11.9332 9.96449 12.2699 10.1733C12.6065 10.3778 12.9943 10.4801 13.4332 10.4801C13.8722 10.4801 14.2599 10.3778 14.5966 10.1733C14.9375 9.96875 15.2038 9.68537 15.3956 9.32315C15.5874 8.96094 15.6832 8.54332 15.6832 8.07031C15.6832 7.59304 15.5874 7.1733 15.3956 6.81108C15.2038 6.4446 14.9375 6.15696 14.5966 5.94815C14.2599 5.73935 13.8722 5.63494 13.4332 5.63494C12.9943 5.63494 12.6044 5.73935 12.2635 5.94815C11.9268 6.1527 11.6626 6.43821 11.4709 6.80469C11.2834 7.1669 11.1896 7.58452 11.1896 8.05753ZM24.736 17.179C23.8837 17.179 23.1209 17.0192 22.4476 16.6996C21.7743 16.3757 21.2395 15.9325 20.8432 15.37C20.4512 14.8075 20.2424 14.1641 20.2168 13.4396H22.5179C22.5605 13.9766 22.7928 14.4155 23.2147 14.7564C23.6365 15.093 24.1436 15.2614 24.736 15.2614C25.2005 15.2614 25.6138 15.1548 25.976 14.9418C26.3382 14.7287 26.6238 14.4325 26.8326 14.0533C27.0414 13.674 27.1436 13.2415 27.1394 12.7557C27.1436 12.2614 27.0392 11.8224 26.8262 11.4389C26.6131 11.0554 26.3212 10.755 25.9505 10.5376C25.5797 10.3161 25.1536 10.2053 24.6721 10.2053C24.28 10.201 23.8944 10.2734 23.5151 10.4226C23.1358 10.5717 22.8354 10.7678 22.6138 11.0107L20.4725 10.6591L21.1564 3.90909H28.7502V5.89062H23.1188L22.7417 9.36151H22.8184C23.0613 9.07599 23.4043 8.83949 23.8475 8.65199C24.2907 8.46023 24.7765 8.36435 25.3049 8.36435C26.0975 8.36435 26.8049 8.55185 27.427 8.92685C28.0492 9.29758 28.5392 9.80895 28.8972 10.4609C29.2551 11.1129 29.4341 11.8587 29.4341 12.6982C29.4341 13.5632 29.2338 14.3345 28.8333 15.0121C28.437 15.6854 27.8851 16.2159 27.1777 16.6037C26.4746 16.9872 25.6607 17.179 24.736 17.179Z" fill="#101828"/>
<path d="M31.7429 13.0938C31.4844 13.0938 31.2628 13.0028 31.0781 12.821C30.8935 12.6392 30.8026 12.4176 30.8054 12.1562C30.8026 11.9006 30.8935 11.6818 31.0781 11.5C31.2628 11.3182 31.4844 11.2273 31.7429 11.2273C31.9929 11.2273 32.2102 11.3182 32.3949 11.5C32.5824 11.6818 32.6776 11.9006 32.6804 12.1562C32.6776 12.3295 32.6321 12.4872 32.544 12.6293C32.4588 12.7713 32.3452 12.8849 32.2031 12.9702C32.0639 13.0526 31.9105 13.0938 31.7429 13.0938ZM37.142 13.1662C36.4403 13.1662 35.8381 12.9886 35.3352 12.6335C34.8352 12.2756 34.4503 11.7599 34.1804 11.0866C33.9134 10.4105 33.7798 9.59659 33.7798 8.64489C33.7827 7.69318 33.9176 6.88352 34.1847 6.21591C34.4545 5.54545 34.8395 5.03409 35.3395 4.68182C35.8423 4.32955 36.4432 4.15341 37.142 4.15341C37.8409 4.15341 38.4418 4.32955 38.9446 4.68182C39.4474 5.03409 39.8324 5.54545 40.0994 6.21591C40.3693 6.88636 40.5043 7.69602 40.5043 8.64489C40.5043 9.59943 40.3693 10.4148 40.0994 11.0909C39.8324 11.7642 39.4474 12.2784 38.9446 12.6335C38.4446 12.9886 37.8438 13.1662 37.142 13.1662ZM37.142 11.8324C37.6875 11.8324 38.1179 11.5639 38.4332 11.027C38.7514 10.4872 38.9105 9.69318 38.9105 8.64489C38.9105 7.9517 38.8381 7.36932 38.6932 6.89773C38.5483 6.42614 38.3438 6.07102 38.0795 5.83239C37.8153 5.59091 37.5028 5.47017 37.142 5.47017C36.5994 5.47017 36.1705 5.74006 35.8551 6.27983C35.5398 6.81676 35.3807 7.60511 35.3778 8.64489C35.375 9.34091 35.4446 9.92614 35.5866 10.4006C35.7315 10.875 35.9361 11.233 36.2003 11.4744C36.4645 11.7131 36.7784 11.8324 37.142 11.8324ZM45.146 13.1662C44.4442 13.1662 43.842 12.9886 43.3391 12.6335C42.8391 12.2756 42.4542 11.7599 42.1843 11.0866C41.9173 10.4105 41.7837 9.59659 41.7837 8.64489C41.7866 7.69318 41.9215 6.88352 42.1886 6.21591C42.4585 5.54545 42.8434 5.03409 43.3434 4.68182C43.8462 4.32955 44.4471 4.15341 45.146 4.15341C45.8448 4.15341 46.4457 4.32955 46.9485 4.68182C47.4513 5.03409 47.8363 5.54545 48.1033 6.21591C48.3732 6.88636 48.5082 7.69602 48.5082 8.64489C48.5082 9.59943 48.3732 10.4148 48.1033 11.0909C47.8363 11.7642 47.4513 12.2784 46.9485 12.6335C46.4485 12.9886 45.8477 13.1662 45.146 13.1662ZM45.146 11.8324C45.6914 11.8324 46.1218 11.5639 46.4371 11.027C46.7553 10.4872 46.9144 9.69318 46.9144 8.64489C46.9144 7.9517 46.842 7.36932 46.6971 6.89773C46.5522 6.42614 46.3477 6.07102 46.0835 5.83239C45.8192 5.59091 45.5067 5.47017 45.146 5.47017C44.6033 5.47017 44.1744 5.74006 43.859 6.27983C43.5437 6.81676 43.3846 7.60511 43.3817 8.64489C43.3789 9.34091 43.4485 9.92614 43.5906 10.4006C43.7354 10.875 43.94 11.233 44.2042 11.4744C44.4684 11.7131 44.7823 11.8324 45.146 11.8324Z" fill="#101828"/>
<path d="M3.33594 14V4H3.97656V14H3.33594ZM5.03516 7.30078C5.00391 6.98568 4.86979 6.74089 4.63281 6.56641C4.39583 6.39193 4.07422 6.30469 3.66797 6.30469C3.39193 6.30469 3.15885 6.34375 2.96875 6.42187C2.77865 6.4974 2.63281 6.60286 2.53125 6.73828C2.43229 6.8737 2.38281 7.02734 2.38281 7.19922C2.3776 7.34245 2.40755 7.46745 2.47266 7.57422C2.54036 7.68099 2.63281 7.77344 2.75 7.85156C2.86719 7.92708 3.0026 7.99349 3.15625 8.05078C3.3099 8.10547 3.47396 8.15234 3.64844 8.19141L4.36719 8.36328C4.71615 8.44141 5.03646 8.54557 5.32812 8.67578C5.61979 8.80599 5.8724 8.96615 6.08594 9.15625C6.29948 9.34635 6.46484 9.57031 6.58203 9.82812C6.70182 10.0859 6.76302 10.3815 6.76562 10.7148C6.76302 11.2044 6.63802 11.6289 6.39063 11.9883C6.14583 12.3451 5.79167 12.6224 5.32812 12.8203C4.86719 13.0156 4.3112 13.1133 3.66016 13.1133C3.01432 13.1133 2.45182 13.0143 1.97266 12.8164C1.49609 12.6185 1.1237 12.3255 0.855469 11.9375C0.589844 11.5469 0.450521 11.0638 0.4375 10.4883H2.07422C2.09245 10.7565 2.16927 10.9805 2.30469 11.1602C2.44271 11.3372 2.6263 11.4714 2.85547 11.5625C3.08724 11.651 3.34896 11.6953 3.64062 11.6953C3.92708 11.6953 4.17578 11.6536 4.38672 11.5703C4.60026 11.487 4.76563 11.3711 4.88281 11.2227C5 11.0742 5.05859 10.9036 5.05859 10.7109C5.05859 10.5312 5.00521 10.3802 4.89844 10.2578C4.79427 10.1354 4.64063 10.0312 4.4375 9.94531C4.23698 9.85937 3.99089 9.78125 3.69922 9.71094L2.82813 9.49219C2.15365 9.32812 1.62109 9.07161 1.23047 8.72266C0.839844 8.3737 0.645833 7.90365 0.648438 7.3125C0.645833 6.82812 0.77474 6.40495 1.03516 6.04297C1.29818 5.68099 1.65885 5.39844 2.11719 5.19531C2.57552 4.99219 3.09635 4.89062 3.67969 4.89062C4.27344 4.89062 4.79167 4.99219 5.23438 5.19531C5.67969 5.39844 6.02604 5.68099 6.27344 6.04297C6.52083 6.40495 6.64844 6.82422 6.65625 7.30078H5.03516Z" fill="#101828"/>
</svg>
