<svg width="109" height="24" viewBox="0 0 109 24" fill="none" xmlns="http://www.w3.org/2000/svg">
<path d="M7.70597 9.5625C7.65294 9.06629 7.42945 8.67992 7.03551 8.40341C6.64536 8.12689 6.13778 7.98864 5.51278 7.98864C5.07339 7.98864 4.6965 8.05492 4.3821 8.1875C4.06771 8.32008 3.82718 8.5 3.66051 8.72727C3.49384 8.95455 3.40862 9.21402 3.40483 9.50568C3.40483 9.74811 3.45975 9.95833 3.5696 10.1364C3.68324 10.3144 3.83665 10.4659 4.02983 10.5909C4.22301 10.7121 4.43703 10.8144 4.67188 10.8977C4.90672 10.9811 5.14347 11.0511 5.3821 11.108L6.47301 11.3807C6.91241 11.483 7.33475 11.6212 7.74006 11.7955C8.14915 11.9697 8.51468 12.1894 8.83665 12.4545C9.16241 12.7197 9.41998 13.0398 9.60938 13.4148C9.79877 13.7898 9.89347 14.2292 9.89347 14.733C9.89347 15.4148 9.71922 16.0152 9.37074 16.5341C9.02225 17.0492 8.51847 17.4527 7.85938 17.7443C7.20407 18.0322 6.41051 18.1761 5.47869 18.1761C4.57339 18.1761 3.78741 18.036 3.12074 17.7557C2.45786 17.4754 1.93892 17.0663 1.56392 16.5284C1.19271 15.9905 0.991951 15.3352 0.961648 14.5625H3.03551C3.06581 14.9678 3.19081 15.3049 3.41051 15.5739C3.63021 15.8428 3.91619 16.0436 4.26847 16.1761C4.62453 16.3087 5.02225 16.375 5.46165 16.375C5.91998 16.375 6.3215 16.3068 6.66619 16.1705C7.01468 16.0303 7.28741 15.8371 7.48438 15.5909C7.68134 15.3409 7.78172 15.0492 7.78551 14.7159C7.78172 14.4129 7.69271 14.1629 7.51847 13.9659C7.34422 13.7652 7.09991 13.5985 6.78551 13.4659C6.47491 13.3295 6.11127 13.2083 5.6946 13.1023L4.37074 12.7614C3.41241 12.5152 2.65483 12.142 2.09801 11.642C1.54498 11.1383 1.26847 10.4697 1.26847 9.63636C1.26847 8.95076 1.45407 8.35038 1.82528 7.83523C2.20028 7.32008 2.70975 6.92045 3.35369 6.63636C3.99763 6.34848 4.7268 6.20455 5.54119 6.20455C6.36695 6.20455 7.09044 6.34848 7.71165 6.63636C8.33665 6.92045 8.82718 7.31629 9.18324 7.82386C9.5393 8.32765 9.72301 8.9072 9.73438 9.5625H7.70597ZM13.7386 12.8864V18H11.6818V6.36364H13.6932V10.7557H13.7955C14 10.2633 14.3163 9.875 14.7443 9.59091C15.1761 9.30303 15.7254 9.15909 16.392 9.15909C16.9981 9.15909 17.5265 9.28598 17.9773 9.53977C18.428 9.79356 18.7765 10.1648 19.0227 10.6534C19.2727 11.142 19.3977 11.7386 19.3977 12.4432V18H17.3409V12.7614C17.3409 12.1742 17.1894 11.7178 16.8864 11.392C16.5871 11.0625 16.1667 10.8977 15.625 10.8977C15.2614 10.8977 14.9356 10.9773 14.6477 11.1364C14.3636 11.2917 14.1402 11.517 13.9773 11.8125C13.8182 12.108 13.7386 12.4659 13.7386 12.8864ZM25.3011 18.1705C24.4489 18.1705 23.7102 17.983 23.0852 17.608C22.4602 17.233 21.9754 16.7083 21.6307 16.0341C21.2898 15.3598 21.1193 14.572 21.1193 13.6705C21.1193 12.7689 21.2898 11.9792 21.6307 11.3011C21.9754 10.6231 22.4602 10.0966 23.0852 9.72159C23.7102 9.34659 24.4489 9.15909 25.3011 9.15909C26.1534 9.15909 26.892 9.34659 27.517 9.72159C28.142 10.0966 28.625 10.6231 28.9659 11.3011C29.3106 11.9792 29.483 12.7689 29.483 13.6705C29.483 14.572 29.3106 15.3598 28.9659 16.0341C28.625 16.7083 28.142 17.233 27.517 17.608C26.892 17.983 26.1534 18.1705 25.3011 18.1705ZM25.3125 16.5227C25.7746 16.5227 26.161 16.3958 26.4716 16.142C26.7822 15.8845 27.0133 15.5398 27.1648 15.108C27.3201 14.6761 27.3977 14.1951 27.3977 13.6648C27.3977 13.1307 27.3201 12.6477 27.1648 12.2159C27.0133 11.7803 26.7822 11.4337 26.4716 11.1761C26.161 10.9186 25.7746 10.7898 25.3125 10.7898C24.839 10.7898 24.4451 10.9186 24.1307 11.1761C23.8201 11.4337 23.5871 11.7803 23.4318 12.2159C23.2803 12.6477 23.2045 13.1307 23.2045 13.6648C23.2045 14.1951 23.2803 14.6761 23.4318 15.108C23.5871 15.5398 23.8201 15.8845 24.1307 16.142C24.4451 16.3958 24.839 16.5227 25.3125 16.5227ZM31.2287 21.2727V9.27273H33.2514V10.7159H33.3707C33.4768 10.5038 33.6264 10.2784 33.8196 10.0398C34.0128 9.79735 34.2741 9.59091 34.6037 9.42045C34.9332 9.24621 35.3537 9.15909 35.8651 9.15909C36.5393 9.15909 37.1473 9.33144 37.6889 9.67614C38.2344 10.017 38.6662 10.5227 38.9844 11.1932C39.3063 11.8598 39.4673 12.678 39.4673 13.6477C39.4673 14.6061 39.3101 15.4205 38.9957 16.0909C38.6813 16.7614 38.2533 17.2727 37.7116 17.625C37.17 17.9773 36.5563 18.1534 35.8707 18.1534C35.3707 18.1534 34.956 18.0701 34.6264 17.9034C34.2969 17.7367 34.0317 17.536 33.831 17.3011C33.634 17.0625 33.4806 16.8371 33.3707 16.625H33.2855V21.2727H31.2287ZM33.2457 13.6364C33.2457 14.2008 33.3253 14.6951 33.4844 15.1193C33.6473 15.5436 33.8802 15.875 34.1832 16.1136C34.4901 16.3485 34.8613 16.4659 35.2969 16.4659C35.7514 16.4659 36.1321 16.3447 36.4389 16.1023C36.7457 15.8561 36.9768 15.5208 37.1321 15.0966C37.2912 14.6686 37.3707 14.1818 37.3707 13.6364C37.3707 13.0947 37.2931 12.6136 37.1378 12.1932C36.9825 11.7727 36.7514 11.4432 36.4446 11.2045C36.1378 10.9659 35.7552 10.8466 35.2969 10.8466C34.8575 10.8466 34.4844 10.9621 34.1776 11.1932C33.8707 11.4242 33.6378 11.7481 33.4787 12.1648C33.3234 12.5814 33.2457 13.072 33.2457 13.6364ZM47.2543 12.8864V18H45.1974V9.27273H47.1634V10.7557H47.2656C47.4664 10.267 47.7865 9.87879 48.2259 9.59091C48.669 9.30303 49.2164 9.15909 49.8679 9.15909C50.4702 9.15909 50.9948 9.28788 51.4418 9.54545C51.8925 9.80303 52.241 10.1761 52.4872 10.6648C52.7372 11.1534 52.8603 11.7462 52.8565 12.4432V18H50.7997V12.7614C50.7997 12.178 50.6482 11.7216 50.3452 11.392C50.0459 11.0625 49.6312 10.8977 49.1009 10.8977C48.741 10.8977 48.4209 10.9773 48.1406 11.1364C47.8641 11.2917 47.6463 11.517 47.4872 11.8125C47.3319 12.108 47.2543 12.4659 47.2543 12.8864ZM58.7543 18.1705C57.902 18.1705 57.1634 17.983 56.5384 17.608C55.9134 17.233 55.4285 16.7083 55.0838 16.0341C54.7429 15.3598 54.5724 14.572 54.5724 13.6705C54.5724 12.7689 54.7429 11.9792 55.0838 11.3011C55.4285 10.6231 55.9134 10.0966 56.5384 9.72159C57.1634 9.34659 57.902 9.15909 58.7543 9.15909C59.6065 9.15909 60.3452 9.34659 60.9702 9.72159C61.5952 10.0966 62.0781 10.6231 62.419 11.3011C62.7637 11.9792 62.9361 12.7689 62.9361 13.6705C62.9361 14.572 62.7637 15.3598 62.419 16.0341C62.0781 16.7083 61.5952 17.233 60.9702 17.608C60.3452 17.983 59.6065 18.1705 58.7543 18.1705ZM58.7656 16.5227C59.2277 16.5227 59.6141 16.3958 59.9247 16.142C60.2353 15.8845 60.4664 15.5398 60.6179 15.108C60.7732 14.6761 60.8509 14.1951 60.8509 13.6648C60.8509 13.1307 60.7732 12.6477 60.6179 12.2159C60.4664 11.7803 60.2353 11.4337 59.9247 11.1761C59.6141 10.9186 59.2277 10.7898 58.7656 10.7898C58.2921 10.7898 57.8982 10.9186 57.5838 11.1761C57.2732 11.4337 57.0402 11.7803 56.8849 12.2159C56.7334 12.6477 56.6577 13.1307 56.6577 13.6648C56.6577 14.1951 56.7334 14.6761 56.8849 15.108C57.0402 15.5398 57.2732 15.8845 57.5838 16.142C57.8982 16.3958 58.2921 16.5227 58.7656 16.5227ZM66.233 18L63.767 9.27273H65.8636L67.3977 15.4091H67.4773L69.0455 9.27273H71.1193L72.6875 15.375H72.7727L74.2841 9.27273H76.3864L73.9148 18H71.7727L70.1364 12.1023H70.017L68.3807 18H66.233Z" fill="white"/>
<path d="M101.083 13.3707C101.808 12.6006 101.808 11.3994 101.083 10.6293L93.7282 2.81464C93.3497 2.41246 92.7168 2.39329 92.3146 2.7718C91.9125 3.15032 91.8933 3.78319 92.2718 4.18537L99.6268 12L92.2718 19.8146C91.8933 20.2168 91.9125 20.8497 92.3146 21.2282C92.7168 21.6067 93.3497 21.5875 93.7282 21.1854L101.083 13.3707Z" fill="white"/>
</svg>
