<svg width="125" height="36" viewBox="0 0 125 36" fill="none" xmlns="http://www.w3.org/2000/svg">
<rect x="0.5" y="0.5" width="124" height="35" rx="17.5" stroke="#D0D5DD"/>
<path d="M18.0085 12.8182L20.8423 21.1108H20.9567L23.7905 12.8182H25.451L21.7869 23H20.0121L16.348 12.8182H18.0085ZM26.802 23V15.3636H28.2885V23H26.802ZM27.5527 14.1854C27.2942 14.1854 27.0721 14.0992 26.8865 13.9268C26.7042 13.7512 26.6131 13.5424 26.6131 13.3004C26.6131 13.0552 26.7042 12.8464 26.8865 12.674C27.0721 12.4983 27.2942 12.4105 27.5527 12.4105C27.8113 12.4105 28.0317 12.4983 28.214 12.674C28.3996 12.8464 28.4924 13.0552 28.4924 13.3004C28.4924 13.5424 28.3996 13.7512 28.214 13.9268C28.0317 14.0992 27.8113 14.1854 27.5527 14.1854ZM33.5795 23.1541C32.8272 23.1541 32.1792 22.9934 31.6357 22.6719C31.0954 22.3471 30.6778 21.8913 30.3828 21.3047C30.0911 20.7147 29.9453 20.0237 29.9453 19.2315C29.9453 18.4493 30.0911 17.7599 30.3828 17.1634C30.6778 16.5668 31.0888 16.1011 31.6158 15.7663C32.1461 15.4316 32.7659 15.2642 33.4751 15.2642C33.906 15.2642 34.3236 15.3355 34.728 15.478C35.1323 15.6205 35.4953 15.8442 35.8168 16.1491C36.1383 16.4541 36.3918 16.8501 36.5774 17.3374C36.763 17.8213 36.8558 18.4096 36.8558 19.1023V19.6293H30.7855V18.5156H35.3991C35.3991 18.1245 35.3196 17.7782 35.1605 17.4766C35.0014 17.1716 34.7777 16.9313 34.4893 16.7557C34.2043 16.58 33.8696 16.4922 33.4851 16.4922C33.0675 16.4922 32.7029 16.5949 32.3913 16.8004C32.0831 17.0026 31.8445 17.2678 31.6754 17.5959C31.5097 17.9207 31.4268 18.2737 31.4268 18.6548V19.5249C31.4268 20.0353 31.5163 20.4695 31.6953 20.8274C31.8776 21.1854 32.1312 21.4588 32.456 21.6477C32.7808 21.8333 33.1603 21.9261 33.5945 21.9261C33.8762 21.9261 34.133 21.8864 34.3651 21.8068C34.5971 21.724 34.7976 21.6013 34.9666 21.4389C35.1357 21.2765 35.2649 21.076 35.3544 20.8374L36.7614 21.0909C36.6487 21.5052 36.4465 21.8681 36.1548 22.1797C35.8665 22.4879 35.5036 22.7282 35.0661 22.9006C34.6319 23.0696 34.1364 23.1541 33.5795 23.1541ZM40.147 23L37.8999 15.3636H39.4361L40.9325 20.9716H41.0071L42.5085 15.3636H44.0447L45.5362 20.9467H45.6108L47.0973 15.3636H48.6335L46.3913 23H44.875L43.3239 17.4865H43.2095L41.6584 23H40.147ZM53.7493 23V15.3636H55.1761V16.6065H55.2706C55.4297 16.1856 55.6899 15.8575 56.0511 15.6222C56.4124 15.3835 56.8449 15.2642 57.3487 15.2642C57.8591 15.2642 58.2867 15.3835 58.6314 15.6222C58.9794 15.8608 59.2363 16.1889 59.402 16.6065H59.4815C59.6638 16.1989 59.9538 15.8741 60.3516 15.6321C60.7493 15.3868 61.2232 15.2642 61.7734 15.2642C62.4661 15.2642 63.0312 15.4813 63.4688 15.9155C63.9096 16.3497 64.13 17.0043 64.13 17.8793V23H62.6435V18.0185C62.6435 17.5014 62.5026 17.1269 62.2209 16.8949C61.9392 16.6629 61.6027 16.5469 61.2116 16.5469C60.7277 16.5469 60.3516 16.696 60.0831 16.9943C59.8146 17.2893 59.6804 17.6688 59.6804 18.1328V23H58.1989V17.924C58.1989 17.5097 58.0696 17.1766 57.8111 16.9247C57.5526 16.6728 57.2161 16.5469 56.8018 16.5469C56.5201 16.5469 56.2599 16.6214 56.0213 16.7706C55.786 16.9164 55.5954 17.1203 55.4496 17.3821C55.3071 17.6439 55.2358 17.9472 55.2358 18.2919V23H53.7493ZM69.339 23.1541C68.623 23.1541 67.9983 22.9901 67.4647 22.6619C66.931 22.3338 66.5167 21.8748 66.2218 21.2848C65.9268 20.6948 65.7793 20.0054 65.7793 19.2166C65.7793 18.4245 65.9268 17.7318 66.2218 17.1385C66.5167 16.5452 66.931 16.0845 67.4647 15.7564C67.9983 15.4283 68.623 15.2642 69.339 15.2642C70.0549 15.2642 70.6796 15.4283 71.2132 15.7564C71.7469 16.0845 72.1612 16.5452 72.4561 17.1385C72.7511 17.7318 72.8986 18.4245 72.8986 19.2166C72.8986 20.0054 72.7511 20.6948 72.4561 21.2848C72.1612 21.8748 71.7469 22.3338 71.2132 22.6619C70.6796 22.9901 70.0549 23.1541 69.339 23.1541ZM69.3439 21.9062C69.8079 21.9062 70.1924 21.7836 70.4973 21.5384C70.8023 21.2931 71.0276 20.9666 71.1735 20.5589C71.3226 20.1513 71.3972 19.7022 71.3972 19.2116C71.3972 18.7244 71.3226 18.277 71.1735 17.8693C71.0276 17.4583 70.8023 17.1286 70.4973 16.88C70.1924 16.6314 69.8079 16.5071 69.3439 16.5071C68.8766 16.5071 68.4888 16.6314 68.1806 16.88C67.8757 17.1286 67.6486 17.4583 67.4995 17.8693C67.3536 18.277 67.2807 18.7244 67.2807 19.2116C67.2807 19.7022 67.3536 20.1513 67.4995 20.5589C67.6486 20.9666 67.8757 21.2931 68.1806 21.5384C68.4888 21.7836 68.8766 21.9062 69.3439 21.9062ZM74.5579 23V15.3636H75.9947V16.5767H76.0742C76.2134 16.1657 76.4587 15.8426 76.81 15.6072C77.1647 15.3686 77.5657 15.2493 78.0131 15.2493C78.1059 15.2493 78.2153 15.2526 78.3413 15.2592C78.4705 15.2659 78.5716 15.2741 78.6445 15.2841V16.706C78.5849 16.6894 78.4788 16.6712 78.3263 16.6513C78.1739 16.6281 78.0214 16.6165 77.869 16.6165C77.5176 16.6165 77.2044 16.6911 76.9293 16.8402C76.6576 16.986 76.4421 17.1899 76.283 17.4517C76.1239 17.7102 76.0444 18.0052 76.0444 18.3366V23H74.5579ZM82.9487 23.1541C82.1963 23.1541 81.5484 22.9934 81.0048 22.6719C80.4645 22.3471 80.0469 21.8913 79.752 21.3047C79.4603 20.7147 79.3145 20.0237 79.3145 19.2315C79.3145 18.4493 79.4603 17.7599 79.752 17.1634C80.0469 16.5668 80.4579 16.1011 80.9849 15.7663C81.5152 15.4316 82.135 15.2642 82.8443 15.2642C83.2752 15.2642 83.6928 15.3355 84.0971 15.478C84.5015 15.6205 84.8644 15.8442 85.1859 16.1491C85.5074 16.4541 85.7609 16.8501 85.9466 17.3374C86.1322 17.8213 86.225 18.4096 86.225 19.1023V19.6293H80.1547V18.5156H84.7683C84.7683 18.1245 84.6887 17.7782 84.5297 17.4766C84.3706 17.1716 84.1468 16.9313 83.8585 16.7557C83.5734 16.58 83.2387 16.4922 82.8542 16.4922C82.4366 16.4922 82.072 16.5949 81.7605 16.8004C81.4522 17.0026 81.2136 17.2678 81.0446 17.5959C80.8788 17.9207 80.796 18.2737 80.796 18.6548V19.5249C80.796 20.0353 80.8855 20.4695 81.0645 20.8274C81.2467 21.1854 81.5003 21.4588 81.8251 21.6477C82.1499 21.8333 82.5294 21.9261 82.9636 21.9261C83.2453 21.9261 83.5022 21.8864 83.7342 21.8068C83.9662 21.724 84.1667 21.6013 84.3358 21.4389C84.5048 21.2765 84.6341 21.076 84.7235 20.8374L86.1305 21.0909C86.0178 21.5052 85.8156 21.8681 85.524 22.1797C85.2356 22.4879 84.8727 22.7282 84.4352 22.9006C84.001 23.0696 83.5055 23.1541 82.9487 23.1541Z" fill="#667185"/>
<path d="M97.111 15.5462L102.972 21.0624C103.55 21.606 104.45 21.606 105.028 21.0624L110.889 15.5462C111.191 15.2623 111.205 14.7876 110.921 14.486C110.637 14.1843 110.163 14.17 109.861 14.4539L104 19.9701L98.139 14.4539C97.8374 14.17 97.3627 14.1843 97.0789 14.486C96.795 14.7876 96.8093 15.2623 97.111 15.5462Z" fill="#475367"/>
</svg>
