<svg width="16" height="11" viewBox="0 0 16 11" fill="none" xmlns="http://www.w3.org/2000/svg">
<path fill-rule="evenodd" clip-rule="evenodd" d="M7.66707 2.83831C9.8918 2.8384 12.0315 3.61516 13.6438 5.00803C13.7652 5.11557 13.9593 5.11421 14.0789 5.00499L15.2395 3.94066C15.3 3.88526 15.3338 3.81023 15.3333 3.73215C15.3328 3.65408 15.2981 3.57941 15.2368 3.52466C11.0049 -0.160563 4.32857 -0.160563 0.0966565 3.52466C0.0353544 3.57936 0.000572274 3.65401 6.99859e-06 3.73209C-0.000558277 3.81016 0.0331399 3.88522 0.0936446 3.94066L1.25459 5.00499C1.37409 5.11438 1.56831 5.11573 1.68965 5.00803C3.30221 3.61507 5.44212 2.83831 7.66707 2.83831ZM7.66699 6.30167C8.88934 6.3016 10.0681 6.71444 10.9741 7.45997C11.0967 7.56577 11.2897 7.56348 11.4092 7.4548L12.5685 6.39047C12.6295 6.33464 12.6634 6.2589 12.6625 6.18021C12.6616 6.10151 12.6261 6.02641 12.5638 5.97173C9.80462 3.63958 5.53171 3.63958 2.77255 5.97173C2.71022 6.02641 2.67466 6.10154 2.67384 6.18027C2.67302 6.25899 2.70702 6.33472 2.76819 6.39047L3.92713 7.4548C4.0466 7.56348 4.23964 7.56577 4.3622 7.45997C5.26766 6.71493 6.44545 6.30213 7.66699 6.30167ZM9.98941 8.63107C9.99118 8.70999 9.95704 8.78607 9.89504 8.84136L7.88974 10.6802C7.83096 10.7343 7.75081 10.7647 7.66719 10.7647C7.58356 10.7647 7.50342 10.7343 7.44464 10.6802L5.439 8.84136C5.37704 8.78603 5.34296 8.70992 5.3448 8.631C5.34663 8.55208 5.38423 8.47735 5.44871 8.42445C6.72937 7.4402 8.60501 7.4402 9.88567 8.42445C9.9501 8.47739 9.98764 8.55215 9.98941 8.63107Z" fill="#171721"/>
</svg>
