<svg width="17" height="10" viewBox="0 0 17 10" fill="none" xmlns="http://www.w3.org/2000/svg">
<path fill-rule="evenodd" clip-rule="evenodd" d="M16 0.0664062H15C14.4477 0.0664062 14 0.473572 14 0.975836V8.85756C14 9.35983 14.4477 9.76699 15 9.76699H16C16.5523 9.76699 17 9.35983 17 8.85756V0.975836C17 0.473572 16.5523 0.0664062 16 0.0664062ZM10.3335 2.189H11.3335C11.8858 2.189 12.3335 2.59617 12.3335 3.09843V8.85815C12.3335 9.36042 11.8858 9.76758 11.3335 9.76758H10.3335C9.78121 9.76758 9.3335 9.36042 9.3335 8.85815V3.09843C9.3335 2.59617 9.78121 2.189 10.3335 2.189ZM6.6665 4.30982H5.6665C5.11422 4.30982 4.6665 4.71699 4.6665 5.21925V8.85697C4.6665 9.35923 5.11422 9.7664 5.6665 9.7664H6.6665C7.21879 9.7664 7.6665 9.35923 7.6665 8.85697V5.21925C7.6665 4.71699 7.21879 4.30982 6.6665 4.30982ZM2 6.12868H1C0.447715 6.12868 0 6.53584 0 7.03811V8.85697C0 9.35923 0.447715 9.7664 1 9.7664H2C2.55228 9.7664 3 9.35923 3 8.85697V7.03811C3 6.53584 2.55228 6.12868 2 6.12868Z" fill="#171721"/>
</svg>
