<svg width="13" height="13" viewBox="0 0 13 13" fill="none" xmlns="http://www.w3.org/2000/svg">
<path d="M0.926641 1.20062L1.28366 0.843599C2.06471 0.0625509 3.33104 0.0625498 4.11209 0.843598L4.73134 1.46285C5.36797 2.09948 5.50074 3.08302 5.05571 3.86567L5.01911 3.93002C4.66257 4.55705 4.66426 5.33297 5.08715 5.91731C5.29785 6.20844 5.53587 6.51002 5.76201 6.73616C5.98814 6.96229 6.28972 7.20032 6.58085 7.41101C7.16519 7.8339 7.94111 7.83559 8.56814 7.47905L8.63249 7.44245C9.41514 6.99742 10.3987 7.13019 11.0353 7.76682L11.6546 8.38607C12.4356 9.16712 12.4356 10.4335 11.6546 11.2145L11.2975 11.5715C10.9225 11.9466 10.4115 12.1556 9.89577 12.0316C8.79359 11.7667 6.66965 10.9436 4.11209 8.38607C1.55453 5.82851 0.731447 3.70458 0.466557 2.60239C0.342607 2.08664 0.551569 1.5757 0.926641 1.20062Z" fill="white"/>
</svg>
