<svg width="168" height="24" viewBox="0 0 168 24" fill="none" xmlns="http://www.w3.org/2000/svg">
<path d="M0 12C0 18.6274 5.37258 24 12 24C18.6274 24 24 18.6274 24 12C24 5.37258 18.6274 0 12 0C5.37258 0 0 5.37258 0 12Z" fill="#1877F2"/>
<path d="M18 12C18 8.7 15.3 6 12 6C8.7 6 6 8.7 6 12C6 15 8.175 17.475 11.025 17.925V13.725H9.525V12H11.025V10.65C11.025 9.15 11.925 8.325 13.275 8.325C13.95 8.325 14.625 8.475 14.625 8.475V9.975H13.875C13.125 9.975 12.9 10.425 12.9 10.875V12H14.55L14.25 13.725H12.825V18C15.825 17.55 18 15 18 12Z" fill="white"/>
<path d="M48 12C48 18.6274 53.3726 24 60 24C66.6274 24 72 18.6274 72 12C72 5.37258 66.6274 0 60 0C53.3726 0 48 5.37258 48 12Z" fill="#1DA1F2"/>
<path d="M66 8.25C65.55 8.475 65.1 8.55 64.575 8.625C65.1 8.325 65.475 7.875 65.625 7.275C65.175 7.575 64.65 7.725 64.05 7.875C63.6 7.425 62.925 7.125 62.25 7.125C60.675 7.125 59.475 8.625 59.85 10.125C57.825 10.05 56.025 9.075 54.75 7.575C54.075 8.7 54.45 10.125 55.5 10.875C55.125 10.875 54.75 10.725 54.375 10.575C54.375 11.7 55.2 12.75 56.325 13.05C55.95 13.125 55.575 13.2 55.2 13.125C55.5 14.1 56.4 14.85 57.525 14.85C56.625 15.525 55.275 15.9 54 15.75C55.125 16.425 56.4 16.875 57.75 16.875C62.325 16.875 64.875 13.05 64.725 9.525C65.25 9.225 65.7 8.775 66 8.25Z" fill="white"/>
<path d="M96 12C96 18.6274 101.373 24 108 24C114.627 24 120 18.6274 120 12C120 5.37258 114.627 0 108 0C101.373 0 96 5.37258 96 12Z" fill="#F00073"/>
<path d="M108 6.90039C109.65 6.90039 109.875 6.90039 110.55 6.90039C111.15 6.90039 111.45 7.05039 111.675 7.12539C111.975 7.27539 112.2 7.35039 112.425 7.57539C112.65 7.80039 112.8 8.02539 112.875 8.32539C112.95 8.55039 113.025 8.85039 113.1 9.45039C113.1 10.1254 113.1 10.2754 113.1 12.0004C113.1 13.7254 113.1 13.8754 113.1 14.5504C113.1 15.1504 112.95 15.4504 112.875 15.6754C112.725 15.9754 112.65 16.2004 112.425 16.4254C112.2 16.6504 111.975 16.8004 111.675 16.8754C111.45 16.9504 111.15 17.0254 110.55 17.1004C109.875 17.1004 109.725 17.1004 108 17.1004C106.275 17.1004 106.125 17.1004 105.45 17.1004C104.85 17.1004 104.55 16.9504 104.325 16.8754C104.025 16.7254 103.8 16.6504 103.575 16.4254C103.35 16.2004 103.2 15.9754 103.125 15.6754C103.05 15.4504 102.975 15.1504 102.9 14.5504C102.9 13.8754 102.9 13.7254 102.9 12.0004C102.9 10.2754 102.9 10.1254 102.9 9.45039C102.9 8.85039 103.05 8.55039 103.125 8.32539C103.275 8.02539 103.35 7.80039 103.575 7.57539C103.8 7.35039 104.025 7.20039 104.325 7.12539C104.55 7.05039 104.85 6.97539 105.45 6.90039C106.125 6.90039 106.35 6.90039 108 6.90039ZM108 5.77539C106.275 5.77539 106.125 5.77539 105.45 5.77539C104.775 5.77539 104.325 5.92539 103.95 6.07539C103.575 6.22539 103.2 6.45039 102.825 6.82539C102.45 7.20039 102.3 7.50039 102.075 7.95039C101.925 8.32539 101.85 8.77539 101.775 9.45039C101.775 10.1254 101.775 10.3504 101.775 12.0004C101.775 13.7254 101.775 13.8754 101.775 14.5504C101.775 15.2254 101.925 15.6754 102.075 16.0504C102.225 16.4254 102.45 16.8004 102.825 17.1754C103.2 17.5504 103.5 17.7004 103.95 17.9254C104.325 18.0754 104.775 18.1504 105.45 18.2254C106.125 18.2254 106.35 18.2254 108 18.2254C109.65 18.2254 109.875 18.2254 110.55 18.2254C111.225 18.2254 111.675 18.0754 112.05 17.9254C112.425 17.7754 112.8 17.5504 113.175 17.1754C113.55 16.8004 113.7 16.5004 113.925 16.0504C114.075 15.6754 114.15 15.2254 114.225 14.5504C114.225 13.8754 114.225 13.6504 114.225 12.0004C114.225 10.3504 114.225 10.1254 114.225 9.45039C114.225 8.77539 114.075 8.32539 113.925 7.95039C113.775 7.57539 113.55 7.20039 113.175 6.82539C112.8 6.45039 112.5 6.30039 112.05 6.07539C111.675 5.92539 111.225 5.85039 110.55 5.77539C109.875 5.77539 109.725 5.77539 108 5.77539Z" fill="white"/>
<path d="M108 8.77539C106.2 8.77539 104.775 10.2004 104.775 12.0004C104.775 13.8004 106.2 15.2254 108 15.2254C109.8 15.2254 111.225 13.8004 111.225 12.0004C111.225 10.2004 109.8 8.77539 108 8.77539ZM108 14.1004C106.875 14.1004 105.9 13.2004 105.9 12.0004C105.9 10.8754 106.8 9.90039 108 9.90039C109.125 9.90039 110.1 10.8004 110.1 12.0004C110.1 13.1254 109.125 14.1004 108 14.1004Z" fill="white"/>
<path d="M111.3 9.45039C111.714 9.45039 112.05 9.1146 112.05 8.70039C112.05 8.28618 111.714 7.95039 111.3 7.95039C110.886 7.95039 110.55 8.28618 110.55 8.70039C110.55 9.1146 110.886 9.45039 111.3 9.45039Z" fill="white"/>
<path d="M144 12C144 18.6274 149.373 24 156 24C162.627 24 168 18.6274 168 12C168 5.37258 162.627 0 156 0C149.373 0 144 5.37258 144 12Z" fill="#2867B2"/>
<path d="M152.7 18H150.15V9.975H152.7V18ZM151.425 8.85C150.6 8.85 150 8.25 150 7.425C150 6.6 150.675 6 151.425 6C152.25 6 152.85 6.6 152.85 7.425C152.85 8.25 152.25 8.85 151.425 8.85ZM162 18H159.45V13.65C159.45 12.375 158.925 12 158.175 12C157.425 12 156.675 12.6 156.675 13.725V18H154.125V9.975H156.525V11.1C156.75 10.575 157.65 9.75 158.925 9.75C160.35 9.75 161.85 10.575 161.85 13.05V18H162Z" fill="white"/>
</svg>
