<svg width="286" height="20" viewBox="0 0 286 20" fill="none" xmlns="http://www.w3.org/2000/svg">
<path d="M6.84588 2.30103C7.37759 1.45565 8.62225 1.45565 9.15396 2.30103L10.4399 4.34552C10.627 4.64296 10.9242 4.85641 11.2681 4.94038L13.6325 5.51755C14.6101 5.75621 14.9947 6.92637 14.3457 7.6875L12.7761 9.52824C12.5478 9.79604 12.4342 10.1414 12.4597 10.4907L12.6351 12.8919C12.7076 13.8848 11.7006 14.608 10.7678 14.233L8.51181 13.3262C8.1836 13.1943 7.81624 13.1943 7.48803 13.3262L5.23204 14.2331C4.2992 14.608 3.29226 13.8848 3.36476 12.8919L3.54009 10.4907C3.5656 10.1414 3.45208 9.79604 3.22373 9.52824L1.65411 7.6875C1.00509 6.92637 1.38971 5.75621 2.36735 5.51755L4.73171 4.94038C5.07568 4.85641 5.37288 4.64296 5.55996 4.34552L6.84588 2.30103Z" fill="#F56630"/>
<path d="M24.8459 2.30103C25.3776 1.45565 26.6222 1.45565 27.154 2.30103L28.4399 4.34552C28.627 4.64296 28.9242 4.85641 29.2681 4.94038L31.6325 5.51755C32.6101 5.75621 32.9947 6.92637 32.3457 7.6875L30.7761 9.52824C30.5478 9.79604 30.4342 10.1414 30.4597 10.4907L30.6351 12.8919C30.7076 13.8848 29.7006 14.608 28.7678 14.233L26.5118 13.3262C26.1836 13.1943 25.8162 13.1943 25.488 13.3262L23.232 14.2331C22.2992 14.608 21.2923 13.8848 21.3648 12.8919L21.5401 10.4907C21.5656 10.1414 21.4521 9.79604 21.2237 9.52824L19.6541 7.6875C19.0051 6.92637 19.3897 5.75621 20.3674 5.51755L22.7317 4.94038C23.0757 4.85641 23.3729 4.64296 23.56 4.34552L24.8459 2.30103Z" fill="#F56630"/>
<path d="M42.8459 2.30103C43.3776 1.45565 44.6222 1.45565 45.154 2.30103L46.4399 4.34552C46.627 4.64296 46.9242 4.85641 47.2681 4.94038L49.6325 5.51755C50.6101 5.75621 50.9947 6.92637 50.3457 7.6875L48.7761 9.52824C48.5478 9.79604 48.4342 10.1414 48.4597 10.4907L48.6351 12.8919C48.7076 13.8848 47.7006 14.608 46.7678 14.233L44.5118 13.3262C44.1836 13.1943 43.8162 13.1943 43.488 13.3262L41.232 14.2331C40.2992 14.608 39.2923 13.8848 39.3648 12.8919L39.5401 10.4907C39.5656 10.1414 39.4521 9.79604 39.2237 9.52824L37.6541 7.6875C37.0051 6.92637 37.3897 5.75621 38.3674 5.51755L40.7317 4.94038C41.0757 4.85641 41.3729 4.64296 41.56 4.34552L42.8459 2.30103Z" fill="#F56630"/>
<path d="M60.8459 2.30103C61.3776 1.45565 62.6222 1.45565 63.154 2.30103L64.4399 4.34552C64.627 4.64296 64.9242 4.85641 65.2681 4.94038L67.6325 5.51755C68.6101 5.75621 68.9947 6.92637 68.3457 7.6875L66.7761 9.52824C66.5478 9.79604 66.4342 10.1414 66.4597 10.4907L66.6351 12.8919C66.7076 13.8848 65.7006 14.608 64.7678 14.233L62.5118 13.3262C62.1836 13.1943 61.8162 13.1943 61.488 13.3262L59.232 14.2331C58.2992 14.608 57.2923 13.8848 57.3648 12.8919L57.5401 10.4907C57.5656 10.1414 57.4521 9.79604 57.2237 9.52824L55.6541 7.6875C55.0051 6.92637 55.3897 5.75621 56.3674 5.51755L58.7317 4.94038C59.0757 4.85641 59.3729 4.64296 59.56 4.34552L60.8459 2.30103Z" fill="#F56630"/>
<path d="M78.8459 2.30103C79.3776 1.45565 80.6222 1.45565 81.154 2.30103L82.4399 4.34552C82.627 4.64296 82.9242 4.85641 83.2681 4.94038L85.6325 5.51755C86.6101 5.75621 86.9947 6.92637 86.3457 7.6875L84.7761 9.52824C84.5478 9.79604 84.4342 10.1414 84.4597 10.4907L84.6351 12.8919C84.7076 13.8848 83.7006 14.608 82.7678 14.233L80.5118 13.3262C80.1836 13.1943 79.8162 13.1943 79.488 13.3262L77.232 14.2331C76.2992 14.608 75.2923 13.8848 75.3648 12.8919L75.5401 10.4907C75.5656 10.1414 75.4521 9.79604 75.2237 9.52824L73.6541 7.6875C73.0051 6.92637 73.3897 5.75621 74.3674 5.51755L76.7317 4.94038C77.0757 4.85641 77.3729 4.64296 77.56 4.34552L78.8459 2.30103Z" fill="#F56630"/>
<path d="M101.491 9.90909C101.491 8.65625 101.654 7.5045 101.979 6.45383C102.307 5.39986 102.774 4.4304 103.381 3.54545H104.415C104.176 3.87358 103.952 4.27794 103.744 4.75852C103.538 5.2358 103.357 5.76113 103.202 6.33452C103.046 6.90459 102.923 7.49455 102.834 8.1044C102.748 8.71425 102.705 9.31581 102.705 9.90909C102.705 10.6979 102.781 11.4983 102.933 12.3104C103.086 13.1224 103.291 13.8764 103.55 14.5724C103.808 15.2685 104.097 15.8352 104.415 16.2727H103.381C102.774 15.3878 102.307 14.42 101.979 13.3693C101.654 12.3153 101.491 11.1619 101.491 9.90909ZM105.888 7.94034C105.888 7.31061 106.025 6.75047 106.3 6.25994C106.579 5.76941 106.958 5.38329 107.439 5.10156C107.923 4.81984 108.473 4.67898 109.089 4.67898C109.712 4.67898 110.266 4.82481 110.75 5.11648C111.234 5.40483 111.613 5.80256 111.888 6.30966C112.163 6.81345 112.298 7.39015 112.291 8.03977C112.284 8.35795 112.236 8.68774 112.147 9.02912C112.057 9.3705 111.907 9.75 111.694 10.1676C111.482 10.5852 111.191 11.0691 110.819 11.6193L108.532 15H107.18L109.865 11.0824C109.746 11.1222 109.621 11.1553 109.492 11.1818C109.366 11.2083 109.238 11.2216 109.109 11.2216C108.493 11.2216 107.941 11.0791 107.454 10.794C106.97 10.509 106.587 10.1196 106.305 9.62571C106.027 9.13187 105.888 8.57008 105.888 7.94034ZM107.061 7.94034C107.061 8.37121 107.147 8.75071 107.319 9.07884C107.492 9.40696 107.73 9.66383 108.035 9.84943C108.34 10.035 108.692 10.1278 109.089 10.1278C109.487 10.1278 109.838 10.0367 110.143 9.8544C110.448 9.6688 110.687 9.41359 110.859 9.08878C111.032 8.76065 111.118 8.38447 111.118 7.96023C111.118 7.52936 111.032 7.1482 110.859 6.81676C110.687 6.48532 110.448 6.22514 110.143 6.03622C109.838 5.8473 109.487 5.75284 109.089 5.75284C108.692 5.75284 108.34 5.8473 108.035 6.03622C107.73 6.22183 107.492 6.48035 107.319 6.81179C107.147 7.13991 107.061 7.5161 107.061 7.94034ZM117.427 4.81818V15H116.194V6.60795H116.114C116.068 6.70076 115.948 6.80682 115.756 6.92614C115.564 7.04214 115.315 7.14489 115.01 7.23438C114.706 7.32055 114.358 7.36364 113.966 7.36364V6.32955C114.361 6.32955 114.702 6.25829 114.991 6.11577C115.279 5.97325 115.519 5.80587 115.711 5.61364C115.907 5.4214 116.055 5.2474 116.154 5.09162C116.257 4.93584 116.316 4.8447 116.333 4.81818H117.427ZM122.871 9.90909C122.871 11.1619 122.706 12.3153 122.378 13.3693C122.054 14.42 121.588 15.3878 120.981 16.2727H119.947C120.186 15.9446 120.408 15.5402 120.613 15.0597C120.822 14.5824 121.005 14.0587 121.16 13.4886C121.316 12.9152 121.437 12.3236 121.523 11.7138C121.613 11.1006 121.657 10.4991 121.657 9.90909C121.657 9.12026 121.581 8.31984 121.429 7.50781C121.276 6.69579 121.071 5.94176 120.812 5.24574C120.554 4.54972 120.265 3.98295 119.947 3.54545H120.981C121.588 4.4304 122.054 5.39986 122.378 6.45383C122.706 7.5045 122.871 8.65625 122.871 9.90909Z" fill="#1D2939"/>
</svg>
