<svg width="282" height="24" viewBox="0 0 282 24" fill="none" xmlns="http://www.w3.org/2000/svg">
<path opacity="0.7" d="M7.08005 10.5298C6.99767 10.2713 6.88687 10.0398 6.74767 9.83523C6.6113 9.62784 6.44795 9.4517 6.25761 9.30682C6.06727 9.15909 5.84994 9.04687 5.60562 8.97017C5.36414 8.89347 5.09852 8.85511 4.80875 8.85511C4.31727 8.85511 3.87409 8.98153 3.4792 9.23438C3.08431 9.48722 2.77181 9.85795 2.5417 10.3466C2.31443 10.8324 2.20079 11.4276 2.20079 12.1321C2.20079 12.8395 2.31585 13.4375 2.54596 13.9261C2.77608 14.4148 3.09142 14.7855 3.49199 15.0384C3.89255 15.2912 4.34852 15.4176 4.85988 15.4176C5.33431 15.4176 5.74767 15.321 6.09994 15.1278C6.45505 14.9347 6.7292 14.6619 6.92238 14.3097C7.11841 13.9545 7.21642 13.5369 7.21642 13.0568L7.55733 13.1207H5.06017V12.0341H8.49056V13.027C8.49056 13.7599 8.33431 14.3963 8.02181 14.9361C7.71216 15.473 7.28318 15.8878 6.73488 16.1804C6.18943 16.473 5.56443 16.6193 4.85988 16.6193C4.07011 16.6193 3.37693 16.4375 2.78034 16.0739C2.18659 15.7102 1.72352 15.1946 1.39113 14.527C1.05875 13.8565 0.892553 13.0611 0.892553 12.1406C0.892553 11.4446 0.989144 10.8196 1.18233 10.2656C1.37551 9.71165 1.64681 9.24148 1.99625 8.85511C2.34852 8.46591 2.76187 8.16903 3.2363 7.96449C3.71358 7.7571 4.23488 7.65341 4.80022 7.65341C5.27181 7.65341 5.71074 7.72301 6.11699 7.86222C6.52608 8.00142 6.88971 8.19886 7.20789 8.45455C7.52892 8.71023 7.79454 9.0142 8.00477 9.36648C8.215 9.71591 8.35704 10.1037 8.43091 10.5298H7.08005ZM12.8208 16.6321C12.1759 16.6321 11.6205 16.4943 11.1546 16.2188C10.6916 15.9403 10.3336 15.5497 10.0808 15.0469C9.83078 14.5412 9.70578 13.9489 9.70578 13.2699C9.70578 12.5994 9.83078 12.0085 10.0808 11.4972C10.3336 10.9858 10.6859 10.5866 11.1376 10.2997C11.5921 10.0128 12.1234 9.86932 12.7313 9.86932C13.1007 9.86932 13.4586 9.9304 13.8052 10.0526C14.1518 10.1747 14.4629 10.3665 14.7384 10.6278C15.014 10.8892 15.2313 11.2287 15.3904 11.6463C15.5495 12.0611 15.6291 12.5653 15.6291 13.1591V13.6108H10.4259V12.6562H14.3805C14.3805 12.321 14.3123 12.0241 14.1759 11.7656C14.0396 11.5043 13.8478 11.2983 13.6007 11.1477C13.3563 10.9972 13.0694 10.9219 12.7399 10.9219C12.3819 10.9219 12.0694 11.0099 11.8024 11.1861C11.5382 11.3594 11.3336 11.5866 11.1887 11.8679C11.0467 12.1463 10.9757 12.4489 10.9757 12.7756V13.5213C10.9757 13.9588 11.0524 14.331 11.2058 14.6378C11.362 14.9446 11.5794 15.179 11.8578 15.3409C12.1362 15.5 12.4615 15.5795 12.8336 15.5795C13.0751 15.5795 13.2953 15.5455 13.4941 15.4773C13.693 15.4062 13.8649 15.3011 14.0098 15.1619C14.1546 15.0227 14.2654 14.8509 14.3421 14.6463L15.5481 14.8636C15.4515 15.2187 15.2782 15.5298 15.0282 15.7969C14.7811 16.0611 14.47 16.267 14.095 16.4148C13.7228 16.5597 13.2981 16.6321 12.8208 16.6321ZM20.0382 9.95455V10.9773H16.4629V9.95455H20.0382ZM17.4217 8.38636H18.6958V14.5781C18.6958 14.8253 18.7328 15.0114 18.8066 15.1364C18.8805 15.2585 18.9757 15.3423 19.0922 15.3878C19.2115 15.4304 19.3407 15.4517 19.4799 15.4517C19.5822 15.4517 19.6717 15.4446 19.7484 15.4304C19.8251 15.4162 19.8848 15.4048 19.9274 15.3963L20.1575 16.4489C20.0836 16.4773 19.9785 16.5057 19.8422 16.5341C19.7058 16.5653 19.5353 16.5824 19.3308 16.5852C18.9956 16.5909 18.6831 16.5312 18.3933 16.4062C18.1035 16.2812 17.8691 16.0881 17.6902 15.8267C17.5112 15.5653 17.4217 15.2372 17.4217 14.8423V8.38636ZM27.367 16.6193C26.833 16.6193 26.3528 16.517 25.9267 16.3125C25.5034 16.1051 25.1653 15.821 24.9125 15.4602C24.6597 15.0994 24.5247 14.6875 24.5077 14.2244H25.7861C25.8173 14.5994 25.9835 14.9077 26.2847 15.1491C26.5858 15.3906 26.9466 15.5114 27.367 15.5114C27.7023 15.5114 27.9991 15.4347 28.2577 15.2812C28.519 15.125 28.7236 14.9105 28.8713 14.6378C29.0219 14.3651 29.0972 14.054 29.0972 13.7045C29.0972 13.3494 29.0205 13.0327 28.867 12.7543C28.7136 12.4759 28.502 12.2571 28.2321 12.098C27.9651 11.9389 27.6582 11.858 27.3116 11.8551C27.0474 11.8551 26.7818 11.9006 26.5148 11.9915C26.2477 12.0824 26.0318 12.2017 25.867 12.3494L24.6611 12.1705L25.1511 7.77273H29.9494V8.90199H26.2463L25.9693 11.3438H26.0205C26.1909 11.179 26.4168 11.0412 26.698 10.9304C26.9821 10.8196 27.2861 10.7642 27.6099 10.7642C28.1412 10.7642 28.6142 10.8906 29.029 11.1435C29.4466 11.3963 29.7747 11.7415 30.0133 12.179C30.2548 12.6136 30.3741 13.1136 30.3713 13.679C30.3741 14.2443 30.2463 14.7486 29.9878 15.1918C29.7321 15.6349 29.377 15.9844 28.9224 16.2401C28.4707 16.4929 27.9523 16.6193 27.367 16.6193ZM34.9061 16.6449C34.2328 16.642 33.6575 16.4645 33.1803 16.1122C32.703 15.7599 32.3379 15.2472 32.0851 14.5739C31.8323 13.9006 31.7058 13.0895 31.7058 12.1406C31.7058 11.1946 31.8323 10.3864 32.0851 9.71591C32.3408 9.04545 32.7073 8.53409 33.1845 8.18182C33.6646 7.82955 34.2385 7.65341 34.9061 7.65341C35.5737 7.65341 36.1462 7.83097 36.6234 8.18608C37.1007 8.53835 37.4658 9.04972 37.7186 9.72017C37.9743 10.3878 38.1021 11.1946 38.1021 12.1406C38.1021 13.0923 37.9757 13.9048 37.7229 14.5781C37.47 15.2486 37.105 15.7614 36.6277 16.1165C36.1504 16.4688 35.5766 16.6449 34.9061 16.6449ZM34.9061 15.5071C35.497 15.5071 35.9587 15.2188 36.2911 14.642C36.6263 14.0653 36.7939 13.2315 36.7939 12.1406C36.7939 11.4162 36.7172 10.804 36.5638 10.304C36.4132 9.80114 36.1959 9.42045 35.9118 9.16193C35.6306 8.90057 35.2953 8.76989 34.9061 8.76989C34.3181 8.76989 33.8564 9.05966 33.5212 9.6392C33.1859 10.2187 33.0169 11.0526 33.0141 12.1406C33.0141 12.8679 33.0894 13.483 33.2399 13.9858C33.3933 14.4858 33.6107 14.8651 33.8919 15.1236C34.1732 15.3793 34.5112 15.5071 34.9061 15.5071ZM44.1093 14.8636V14.4034C44.1093 14.0739 44.1774 13.7727 44.3138 13.5C44.453 13.2244 44.6547 13.0043 44.9189 12.8395C45.186 12.6719 45.5084 12.5881 45.8862 12.5881C46.2726 12.5881 46.5965 12.6705 46.8578 12.8352C47.1192 13 47.3166 13.2202 47.4502 13.4957C47.5865 13.7713 47.6547 14.0739 47.6547 14.4034V14.8636C47.6547 15.1932 47.5865 15.4957 47.4502 15.7713C47.3138 16.044 47.1135 16.2642 46.8493 16.4318C46.588 16.5966 46.2669 16.679 45.8862 16.679C45.5027 16.679 45.1789 16.5966 44.9147 16.4318C44.6505 16.2642 44.4502 16.044 44.3138 15.7713C44.1774 15.4957 44.1093 15.1932 44.1093 14.8636ZM45.1022 14.4034V14.8636C45.1022 15.108 45.1604 15.3295 45.2769 15.5284C45.3933 15.7273 45.5965 15.8267 45.8862 15.8267C46.1732 15.8267 46.3735 15.7273 46.4871 15.5284C46.6007 15.3295 46.6576 15.108 46.6576 14.8636V14.4034C46.6576 14.1591 46.6022 13.9375 46.4914 13.7386C46.3834 13.5398 46.1817 13.4403 45.8862 13.4403C45.6022 13.4403 45.4005 13.5398 45.2811 13.7386C45.1618 13.9375 45.1022 14.1591 45.1022 14.4034ZM39.7201 9.86932V9.40909C39.7201 9.07955 39.7882 8.77699 39.9246 8.50142C40.0638 8.22585 40.2655 8.00568 40.5297 7.84091C40.7968 7.67614 41.1192 7.59375 41.497 7.59375C41.8834 7.59375 42.2073 7.67614 42.4686 7.84091C42.73 8.00568 42.9274 8.22585 43.061 8.50142C43.1945 8.77699 43.2612 9.07955 43.2612 9.40909V9.86932C43.2612 10.1989 43.1931 10.5014 43.0567 10.777C42.9232 11.0497 42.7243 11.2699 42.4601 11.4375C42.1987 11.6023 41.8777 11.6847 41.497 11.6847C41.1107 11.6847 40.7854 11.6023 40.5212 11.4375C40.2598 11.2699 40.061 11.0497 39.9246 10.777C39.7882 10.5014 39.7201 10.1989 39.7201 9.86932ZM40.7172 9.40909V9.86932C40.7172 10.1136 40.774 10.3352 40.8877 10.5341C41.0041 10.733 41.2073 10.8324 41.497 10.8324C41.7811 10.8324 41.98 10.733 42.0936 10.5341C42.2101 10.3352 42.2683 10.1136 42.2683 9.86932V9.40909C42.2683 9.16477 42.213 8.94318 42.1022 8.74432C41.9914 8.54545 41.7897 8.44602 41.497 8.44602C41.213 8.44602 41.0112 8.54545 40.8919 8.74432C40.7755 8.94318 40.7172 9.16477 40.7172 9.40909ZM40.1249 16.5L46.1249 7.77273H47.1433L41.1433 16.5H40.1249ZM60.2474 12.1364C60.2474 13.0682 60.077 13.8693 59.7361 14.5398C59.3952 15.2074 58.9278 15.7216 58.3341 16.0824C57.7432 16.4403 57.0713 16.6193 56.3184 16.6193C55.5628 16.6193 54.8881 16.4403 54.2943 16.0824C53.7034 15.7216 53.2375 15.206 52.8966 14.5355C52.5557 13.8651 52.3852 13.0653 52.3852 12.1364C52.3852 11.2045 52.5557 10.4048 52.8966 9.73722C53.2375 9.06676 53.7034 8.55256 54.2943 8.1946C54.8881 7.83381 55.5628 7.65341 56.3184 7.65341C57.0713 7.65341 57.7432 7.83381 58.3341 8.1946C58.9278 8.55256 59.3952 9.06676 59.7361 9.73722C60.077 10.4048 60.2474 11.2045 60.2474 12.1364ZM58.9434 12.1364C58.9434 11.4261 58.8284 10.8281 58.5983 10.3423C58.371 9.85369 58.0585 9.48438 57.6608 9.23438C57.2659 8.98153 56.8184 8.85511 56.3184 8.85511C55.8156 8.85511 55.3667 8.98153 54.9719 9.23438C54.577 9.48438 54.2645 9.85369 54.0344 10.3423C53.8071 10.8281 53.6934 11.4261 53.6934 12.1364C53.6934 12.8466 53.8071 13.446 54.0344 13.9347C54.2645 14.4205 54.577 14.7898 54.9719 15.0426C55.3667 15.2926 55.8156 15.4176 56.3184 15.4176C56.8184 15.4176 57.2659 15.2926 57.6608 15.0426C58.0585 14.7898 58.371 14.4205 58.5983 13.9347C58.8284 13.446 58.9434 12.8466 58.9434 12.1364ZM64.8419 9.95455V10.9773H61.143V9.95455H64.8419ZM62.1572 16.5V9.19602C62.1572 8.78693 62.2467 8.44744 62.4257 8.17756C62.6047 7.90483 62.8419 7.7017 63.1374 7.56818C63.4328 7.43182 63.7538 7.36364 64.1004 7.36364C64.3561 7.36364 64.5749 7.38494 64.7567 7.42756C64.9385 7.46733 65.0734 7.50426 65.1615 7.53835L64.8632 8.5696C64.8035 8.55256 64.7268 8.53267 64.6331 8.50994C64.5393 8.48437 64.4257 8.47159 64.2922 8.47159C63.9825 8.47159 63.7609 8.5483 63.6274 8.7017C63.4967 8.85511 63.4314 9.0767 63.4314 9.36648V16.5H62.1572ZM69.2116 9.95455V10.9773H65.5127V9.95455H69.2116ZM66.5269 16.5V9.19602C66.5269 8.78693 66.6164 8.44744 66.7954 8.17756C66.9744 7.90483 67.2116 7.7017 67.507 7.56818C67.8025 7.43182 68.1235 7.36364 68.4701 7.36364C68.7258 7.36364 68.9445 7.38494 69.1264 7.42756C69.3082 7.46733 69.4431 7.50426 69.5312 7.53835L69.2329 8.5696C69.1732 8.55256 69.0965 8.53267 69.0028 8.50994C68.909 8.48437 68.7954 8.47159 68.6619 8.47159C68.3522 8.47159 68.1306 8.5483 67.9971 8.7017C67.8664 8.85511 67.8011 9.0767 67.8011 9.36648V16.5H66.5269ZM76.3391 16.6321C75.7255 16.6321 75.19 16.4915 74.7326 16.2102C74.2752 15.929 73.9201 15.5355 73.6672 15.0298C73.4144 14.5241 73.288 13.9332 73.288 13.2571C73.288 12.5781 73.4144 11.9844 73.6672 11.4759C73.9201 10.9673 74.2752 10.5724 74.7326 10.2912C75.19 10.0099 75.7255 9.86932 76.3391 9.86932C76.9527 9.86932 77.4882 10.0099 77.9456 10.2912C78.403 10.5724 78.7581 10.9673 79.011 11.4759C79.2638 11.9844 79.3902 12.5781 79.3902 13.2571C79.3902 13.9332 79.2638 14.5241 79.011 15.0298C78.7581 15.5355 78.403 15.929 77.9456 16.2102C77.4882 16.4915 76.9527 16.6321 76.3391 16.6321ZM76.3434 15.5625C76.7411 15.5625 77.0706 15.4574 77.332 15.2472C77.5934 15.0369 77.7865 14.7571 77.9115 14.4077C78.0394 14.0582 78.1033 13.6733 78.1033 13.2528C78.1033 12.8352 78.0394 12.4517 77.9115 12.1023C77.7865 11.75 77.5934 11.4673 77.332 11.2543C77.0706 11.0412 76.7411 10.9347 76.3434 10.9347C75.9428 10.9347 75.6104 11.0412 75.3462 11.2543C75.0848 11.4673 74.8902 11.75 74.7624 12.1023C74.6374 12.4517 74.5749 12.8352 74.5749 13.2528C74.5749 13.6733 74.6374 14.0582 74.7624 14.4077C74.8902 14.7571 75.0848 15.0369 75.3462 15.2472C75.6104 15.4574 75.9428 15.5625 76.3434 15.5625ZM82.0266 12.6136V16.5H80.7525V9.95455H81.9755V11.0199H82.0564C82.207 10.6733 82.4428 10.3949 82.7638 10.1847C83.0877 9.97443 83.4954 9.86932 83.9868 9.86932C84.4329 9.86932 84.8235 9.96307 85.1587 10.1506C85.4939 10.3352 85.7539 10.6108 85.9385 10.9773C86.1232 11.3437 86.2155 11.7969 86.2155 12.3366V16.5H84.9414V12.4901C84.9414 12.0156 84.8178 11.6449 84.5707 11.3778C84.3235 11.108 83.984 10.973 83.5522 10.973C83.2567 10.973 82.9939 11.0369 82.7638 11.1648C82.5366 11.2926 82.3562 11.4801 82.2226 11.7273C82.092 11.9716 82.0266 12.267 82.0266 12.6136ZM95.8423 10.0653C95.7969 9.66193 95.6094 9.34943 95.2798 9.12784C94.9503 8.90341 94.5355 8.79119 94.0355 8.79119C93.6776 8.79119 93.3679 8.84801 93.1065 8.96165C92.8452 9.07244 92.6421 9.22585 92.4972 9.42188C92.3551 9.61506 92.2841 9.83523 92.2841 10.0824C92.2841 10.2898 92.3324 10.4687 92.429 10.6193C92.5284 10.7699 92.6577 10.8963 92.8168 10.9986C92.9787 11.098 93.152 11.1818 93.3367 11.25C93.5213 11.3153 93.6989 11.3693 93.8693 11.4119L94.7216 11.6335C95 11.7017 95.2855 11.794 95.5781 11.9105C95.8707 12.027 96.1421 12.1804 96.3921 12.3707C96.6421 12.5611 96.8438 12.7969 96.9972 13.0781C97.1534 13.3594 97.2315 13.696 97.2315 14.0881C97.2315 14.5824 97.1037 15.0213 96.848 15.4048C96.5952 15.7884 96.2273 16.0909 95.7443 16.3125C95.2642 16.5341 94.6832 16.6449 94.0014 16.6449C93.348 16.6449 92.7827 16.5412 92.3054 16.3338C91.8281 16.1264 91.4546 15.8324 91.1847 15.4517C90.9148 15.0682 90.7656 14.6136 90.7372 14.0881H92.0582C92.0838 14.4034 92.1861 14.6662 92.3651 14.8764C92.5469 15.0838 92.7784 15.2386 93.0597 15.3409C93.3438 15.4403 93.6548 15.4901 93.9929 15.4901C94.3651 15.4901 94.696 15.4318 94.9858 15.3153C95.2784 15.196 95.5085 15.0312 95.6761 14.821C95.8438 14.608 95.9276 14.3594 95.9276 14.0753C95.9276 13.8168 95.8537 13.6051 95.706 13.4403C95.5611 13.2756 95.3636 13.1392 95.1136 13.0312C94.8665 12.9233 94.5867 12.8281 94.2742 12.7457L93.2429 12.4645C92.544 12.2741 91.9901 11.9943 91.581 11.625C91.1747 11.2557 90.9716 10.767 90.9716 10.1591C90.9716 9.65625 91.108 9.21733 91.3807 8.84233C91.6534 8.46733 92.0227 8.17614 92.4886 7.96875C92.9546 7.75852 93.4801 7.65341 94.0654 7.65341C94.6563 7.65341 95.1776 7.7571 95.6293 7.96449C96.0838 8.17188 96.4418 8.45739 96.7031 8.82102C96.9645 9.18182 97.1009 9.59659 97.1122 10.0653H95.8423ZM101.464 16.6321C100.819 16.6321 100.264 16.4943 99.7976 16.2188C99.3345 15.9403 98.9766 15.5497 98.7237 15.0469C98.4737 14.5412 98.3487 13.9489 98.3487 13.2699C98.3487 12.5994 98.4737 12.0085 98.7237 11.4972C98.9766 10.9858 99.3289 10.5866 99.7806 10.2997C100.235 10.0128 100.766 9.86932 101.374 9.86932C101.744 9.86932 102.102 9.9304 102.448 10.0526C102.795 10.1747 103.106 10.3665 103.381 10.6278C103.657 10.8892 103.874 11.2287 104.033 11.6463C104.192 12.0611 104.272 12.5653 104.272 13.1591V13.6108H99.0689V12.6562H103.023C103.023 12.321 102.955 12.0241 102.819 11.7656C102.683 11.5043 102.491 11.2983 102.244 11.1477C101.999 10.9972 101.712 10.9219 101.383 10.9219C101.025 10.9219 100.712 11.0099 100.445 11.1861C100.181 11.3594 99.9766 11.5866 99.8317 11.8679C99.6897 12.1463 99.6186 12.4489 99.6186 12.7756V13.5213C99.6186 13.9588 99.6953 14.331 99.8487 14.6378C100.005 14.9446 100.222 15.179 100.501 15.3409C100.779 15.5 101.104 15.5795 101.477 15.5795C101.718 15.5795 101.938 15.5455 102.137 15.4773C102.336 15.4062 102.508 15.3011 102.653 15.1619C102.798 15.0227 102.908 14.8509 102.985 14.6463L104.191 14.8636C104.094 15.2187 103.921 15.5298 103.671 15.7969C103.424 16.0611 103.113 16.267 102.738 16.4148C102.366 16.5597 101.941 16.6321 101.464 16.6321ZM106.9 7.77273V16.5H105.626V7.77273H106.9ZM111.375 16.6321C110.73 16.6321 110.175 16.4943 109.709 16.2188C109.246 15.9403 108.888 15.5497 108.635 15.0469C108.385 14.5412 108.26 13.9489 108.26 13.2699C108.26 12.5994 108.385 12.0085 108.635 11.4972C108.888 10.9858 109.24 10.5866 109.692 10.2997C110.146 10.0128 110.678 9.86932 111.286 9.86932C111.655 9.86932 112.013 9.9304 112.359 10.0526C112.706 10.1747 113.017 10.3665 113.293 10.6278C113.568 10.8892 113.786 11.2287 113.945 11.6463C114.104 12.0611 114.183 12.5653 114.183 13.1591V13.6108H108.98V12.6562H112.935C112.935 12.321 112.867 12.0241 112.73 11.7656C112.594 11.5043 112.402 11.2983 112.155 11.1477C111.911 10.9972 111.624 10.9219 111.294 10.9219C110.936 10.9219 110.624 11.0099 110.357 11.1861C110.092 11.3594 109.888 11.5866 109.743 11.8679C109.601 12.1463 109.53 12.4489 109.53 12.7756V13.5213C109.53 13.9588 109.607 14.331 109.76 14.6378C109.916 14.9446 110.134 15.179 110.412 15.3409C110.69 15.5 111.016 15.5795 111.388 15.5795C111.629 15.5795 111.849 15.5455 112.048 15.4773C112.247 15.4062 112.419 15.3011 112.564 15.1619C112.709 15.0227 112.82 14.8509 112.896 14.6463L114.102 14.8636C114.006 15.2187 113.832 15.5298 113.582 15.7969C113.335 16.0611 113.024 16.267 112.649 16.4148C112.277 16.5597 111.852 16.6321 111.375 16.6321ZM118.294 16.6321C117.661 16.6321 117.115 16.4886 116.658 16.2017C116.203 15.9119 115.854 15.5128 115.609 15.0043C115.365 14.4957 115.243 13.9134 115.243 13.2571C115.243 12.5923 115.368 12.0057 115.618 11.4972C115.868 10.9858 116.22 10.5866 116.675 10.2997C117.129 10.0128 117.665 9.86932 118.281 9.86932C118.778 9.86932 119.222 9.96165 119.611 10.1463C120 10.3281 120.314 10.5838 120.553 10.9134C120.794 11.2429 120.938 11.6278 120.983 12.0682H119.743C119.675 11.7614 119.519 11.4972 119.274 11.2756C119.033 11.054 118.709 10.9432 118.303 10.9432C117.948 10.9432 117.636 11.0369 117.369 11.2244C117.105 11.4091 116.899 11.6733 116.751 12.017C116.604 12.358 116.53 12.7614 116.53 13.2273C116.53 13.7045 116.602 14.1165 116.747 14.4631C116.892 14.8097 117.097 15.0781 117.361 15.2685C117.628 15.4588 117.942 15.554 118.303 15.554C118.544 15.554 118.763 15.5099 118.959 15.4219C119.158 15.331 119.324 15.2017 119.457 15.0341C119.594 14.8665 119.689 14.6648 119.743 14.429H120.983C120.938 14.8523 120.8 15.2301 120.57 15.5625C120.34 15.8949 120.031 16.1562 119.645 16.3466C119.261 16.5369 118.811 16.6321 118.294 16.6321ZM125.341 9.95455V10.9773H121.766V9.95455H125.341ZM122.725 8.38636H123.999V14.5781C123.999 14.8253 124.036 15.0114 124.109 15.1364C124.183 15.2585 124.278 15.3423 124.395 15.3878C124.514 15.4304 124.644 15.4517 124.783 15.4517C124.885 15.4517 124.975 15.4446 125.051 15.4304C125.128 15.4162 125.188 15.4048 125.23 15.3963L125.46 16.4489C125.386 16.4773 125.281 16.5057 125.145 16.5341C125.009 16.5653 124.838 16.5824 124.634 16.5852C124.298 16.5909 123.986 16.5312 123.696 16.4062C123.406 16.2812 123.172 16.0881 122.993 15.8267C122.814 15.5653 122.725 15.2372 122.725 14.8423V8.38636ZM129.441 16.6321C128.796 16.6321 128.241 16.4943 127.775 16.2188C127.312 15.9403 126.954 15.5497 126.701 15.0469C126.451 14.5412 126.326 13.9489 126.326 13.2699C126.326 12.5994 126.451 12.0085 126.701 11.4972C126.954 10.9858 127.306 10.5866 127.758 10.2997C128.212 10.0128 128.744 9.86932 129.352 9.86932C129.721 9.86932 130.079 9.9304 130.426 10.0526C130.772 10.1747 131.083 10.3665 131.359 10.6278C131.634 10.8892 131.852 11.2287 132.011 11.6463C132.17 12.0611 132.249 12.5653 132.249 13.1591V13.6108H127.046V12.6562H131.001C131.001 12.321 130.933 12.0241 130.796 11.7656C130.66 11.5043 130.468 11.2983 130.221 11.1477C129.977 10.9972 129.69 10.9219 129.36 10.9219C129.002 10.9219 128.69 11.0099 128.423 11.1861C128.158 11.3594 127.954 11.5866 127.809 11.8679C127.667 12.1463 127.596 12.4489 127.596 12.7756V13.5213C127.596 13.9588 127.673 14.331 127.826 14.6378C127.982 14.9446 128.2 15.179 128.478 15.3409C128.756 15.5 129.082 15.5795 129.454 15.5795C129.695 15.5795 129.916 15.5455 130.114 15.4773C130.313 15.4062 130.485 15.3011 130.63 15.1619C130.775 15.0227 130.886 14.8509 130.962 14.6463L132.168 14.8636C132.072 15.2187 131.899 15.5298 131.649 15.7969C131.401 16.0611 131.09 16.267 130.715 16.4148C130.343 16.5597 129.918 16.6321 129.441 16.6321ZM136.053 16.6278C135.525 16.6278 135.053 16.4929 134.639 16.223C134.227 15.9503 133.903 15.5625 133.667 15.0597C133.434 14.554 133.318 13.9474 133.318 13.2401C133.318 12.5327 133.435 11.9276 133.671 11.4247C133.91 10.9219 134.237 10.5369 134.651 10.2699C135.066 10.0028 135.536 9.86932 136.062 9.86932C136.468 9.86932 136.795 9.9375 137.042 10.0739C137.292 10.2074 137.485 10.3636 137.622 10.5426C137.761 10.7216 137.869 10.8793 137.945 11.0156H138.022V7.77273H139.296V16.5H138.052V15.4815H137.945C137.869 15.6207 137.758 15.7798 137.613 15.9588C137.471 16.1378 137.275 16.294 137.025 16.4276C136.775 16.5611 136.451 16.6278 136.053 16.6278ZM136.335 15.5412C136.701 15.5412 137.011 15.4446 137.264 15.2514C137.519 15.0554 137.712 14.7841 137.843 14.4375C137.977 14.0909 138.043 13.6875 138.043 13.2273C138.043 12.7727 137.978 12.375 137.847 12.0341C137.717 11.6932 137.525 11.4276 137.272 11.2372C137.019 11.0469 136.707 10.9517 136.335 10.9517C135.951 10.9517 135.631 11.0511 135.376 11.25C135.12 11.4489 134.927 11.7202 134.796 12.0639C134.668 12.4077 134.605 12.7955 134.605 13.2273C134.605 13.6648 134.67 14.0582 134.801 14.4077C134.931 14.7571 135.124 15.0341 135.38 15.2386C135.639 15.4403 135.957 15.5412 136.335 15.5412ZM145.59 7.77273V16.5H144.273V7.77273H145.59ZM150.4 9.95455V10.9773H146.825V9.95455H150.4ZM147.784 8.38636H149.058V14.5781C149.058 14.8253 149.095 15.0114 149.169 15.1364C149.243 15.2585 149.338 15.3423 149.454 15.3878C149.574 15.4304 149.703 15.4517 149.842 15.4517C149.944 15.4517 150.034 15.4446 150.111 15.4304C150.187 15.4162 150.247 15.4048 150.29 15.3963L150.52 16.4489C150.446 16.4773 150.341 16.5057 150.204 16.5341C150.068 16.5653 149.898 16.5824 149.693 16.5852C149.358 16.5909 149.045 16.5312 148.755 16.4062C148.466 16.2812 148.231 16.0881 148.052 15.8267C147.873 15.5653 147.784 15.2372 147.784 14.8423V8.38636ZM154.501 16.6321C153.856 16.6321 153.3 16.4943 152.834 16.2188C152.371 15.9403 152.013 15.5497 151.76 15.0469C151.51 14.5412 151.385 13.9489 151.385 13.2699C151.385 12.5994 151.51 12.0085 151.76 11.4972C152.013 10.9858 152.366 10.5866 152.817 10.2997C153.272 10.0128 153.803 9.86932 154.411 9.86932C154.78 9.86932 155.138 9.9304 155.485 10.0526C155.831 10.1747 156.143 10.3665 156.418 10.6278C156.694 10.8892 156.911 11.2287 157.07 11.6463C157.229 12.0611 157.309 12.5653 157.309 13.1591V13.6108H152.106V12.6562H156.06C156.06 12.321 155.992 12.0241 155.856 11.7656C155.719 11.5043 155.528 11.2983 155.28 11.1477C155.036 10.9972 154.749 10.9219 154.42 10.9219C154.062 10.9219 153.749 11.0099 153.482 11.1861C153.218 11.3594 153.013 11.5866 152.868 11.8679C152.726 12.1463 152.655 12.4489 152.655 12.7756V13.5213C152.655 13.9588 152.732 14.331 152.885 14.6378C153.042 14.9446 153.259 15.179 153.537 15.3409C153.816 15.5 154.141 15.5795 154.513 15.5795C154.755 15.5795 154.975 15.5455 155.174 15.4773C155.373 15.4062 155.545 15.3011 155.689 15.1619C155.834 15.0227 155.945 14.8509 156.022 14.6463L157.228 14.8636C157.131 15.2187 156.958 15.5298 156.708 15.7969C156.461 16.0611 156.15 16.267 155.775 16.4148C155.403 16.5597 154.978 16.6321 154.501 16.6321ZM158.662 16.5V9.95455H159.885V11.0199H159.966C160.103 10.6591 160.326 10.3778 160.635 10.1761C160.945 9.97159 161.316 9.86932 161.748 9.86932C162.185 9.86932 162.552 9.97159 162.847 10.1761C163.145 10.3807 163.366 10.6619 163.508 11.0199H163.576C163.732 10.6705 163.981 10.392 164.322 10.1847C164.662 9.97443 165.069 9.86932 165.54 9.86932C166.134 9.86932 166.618 10.0554 166.993 10.4276C167.371 10.7997 167.56 11.3608 167.56 12.1108V16.5H166.286V12.2301C166.286 11.7869 166.165 11.4659 165.924 11.267C165.682 11.0682 165.394 10.9688 165.059 10.9688C164.644 10.9688 164.322 11.0966 164.091 11.3523C163.861 11.6051 163.746 11.9304 163.746 12.3281V16.5H162.476V12.1491C162.476 11.794 162.366 11.5085 162.144 11.2926C161.922 11.0767 161.634 10.9688 161.279 10.9688C161.037 10.9688 160.814 11.0327 160.61 11.1605C160.408 11.2855 160.245 11.4602 160.12 11.6847C159.998 11.9091 159.937 12.169 159.937 12.4645V16.5H158.662ZM174.113 11.5526L172.958 11.7571C172.91 11.6094 172.833 11.4687 172.728 11.3352C172.626 11.2017 172.486 11.0923 172.31 11.0071C172.134 10.9219 171.914 10.8793 171.65 10.8793C171.289 10.8793 170.988 10.9602 170.746 11.1222C170.505 11.2812 170.384 11.4872 170.384 11.7401C170.384 11.9588 170.465 12.1349 170.627 12.2685C170.789 12.402 171.05 12.5114 171.411 12.5966L172.451 12.8352C173.053 12.9744 173.502 13.1889 173.797 13.4787C174.093 13.7685 174.241 14.1449 174.241 14.608C174.241 15 174.127 15.3494 173.9 15.6562C173.675 15.9602 173.361 16.1989 172.958 16.3722C172.557 16.5455 172.093 16.6321 171.564 16.6321C170.832 16.6321 170.234 16.4759 169.77 16.1634C169.307 15.848 169.023 15.4006 168.918 14.821L170.15 14.6335C170.226 14.9545 170.384 15.1974 170.623 15.3622C170.861 15.5241 171.172 15.6051 171.556 15.6051C171.974 15.6051 172.307 15.5185 172.557 15.3452C172.807 15.169 172.932 14.9545 172.932 14.7017C172.932 14.4972 172.856 14.3253 172.702 14.1861C172.552 14.0469 172.32 13.9418 172.008 13.8707L170.9 13.6278C170.289 13.4886 169.837 13.267 169.545 12.9631C169.255 12.6591 169.11 12.2741 169.11 11.8082C169.11 11.4219 169.218 11.0838 169.434 10.794C169.65 10.5043 169.948 10.2784 170.329 10.1165C170.709 9.9517 171.145 9.86932 171.637 9.86932C172.344 9.86932 172.901 10.0227 173.307 10.3295C173.714 10.6335 173.982 11.0412 174.113 11.5526Z" fill="white"/>
<path opacity="0.15" d="M199 0V24" stroke="white"/>
<path d="M229.103 10.0653C229.057 9.66193 228.87 9.34943 228.54 9.12784C228.211 8.90341 227.796 8.79119 227.296 8.79119C226.938 8.79119 226.628 8.84801 226.367 8.96165C226.105 9.07244 225.902 9.22585 225.757 9.42188C225.615 9.61506 225.544 9.83523 225.544 10.0824C225.544 10.2898 225.593 10.4687 225.689 10.6193C225.789 10.7699 225.918 10.8963 226.077 10.9986C226.239 11.098 226.412 11.1818 226.597 11.25C226.782 11.3153 226.959 11.3693 227.13 11.4119L227.982 11.6335C228.26 11.7017 228.546 11.794 228.838 11.9105C229.131 12.027 229.402 12.1804 229.652 12.3707C229.902 12.5611 230.104 12.7969 230.257 13.0781C230.414 13.3594 230.492 13.696 230.492 14.0881C230.492 14.5824 230.364 15.0213 230.108 15.4048C229.855 15.7884 229.488 16.0909 229.005 16.3125C228.524 16.5341 227.943 16.6449 227.262 16.6449C226.608 16.6449 226.043 16.5412 225.566 16.3338C225.088 16.1264 224.715 15.8324 224.445 15.4517C224.175 15.0682 224.026 14.6136 223.997 14.0881H225.318C225.344 14.4034 225.446 14.6662 225.625 14.8764C225.807 15.0838 226.039 15.2386 226.32 15.3409C226.604 15.4403 226.915 15.4901 227.253 15.4901C227.625 15.4901 227.956 15.4318 228.246 15.3153C228.539 15.196 228.769 15.0312 228.936 14.821C229.104 14.608 229.188 14.3594 229.188 14.0753C229.188 13.8168 229.114 13.6051 228.966 13.4403C228.821 13.2756 228.624 13.1392 228.374 13.0312C228.127 12.9233 227.847 12.8281 227.534 12.7457L226.503 12.4645C225.804 12.2741 225.25 11.9943 224.841 11.625C224.435 11.2557 224.232 10.767 224.232 10.1591C224.232 9.65625 224.368 9.21733 224.641 8.84233C224.914 8.46733 225.283 8.17614 225.749 7.96875C226.215 7.75852 226.74 7.65341 227.326 7.65341C227.916 7.65341 228.438 7.7571 228.89 7.96449C229.344 8.17188 229.702 8.45739 229.963 8.82102C230.225 9.18182 230.361 9.59659 230.372 10.0653H229.103ZM233.177 12.6136V16.5H231.903V7.77273H233.16V11.0199H233.241C233.394 10.6676 233.629 10.3878 233.944 10.1804C234.26 9.97301 234.671 9.86932 235.18 9.86932C235.629 9.86932 236.021 9.96165 236.356 10.1463C236.694 10.331 236.956 10.6065 237.14 10.973C237.328 11.3366 237.421 11.7912 237.421 12.3366V16.5H236.147V12.4901C236.147 12.0099 236.024 11.6378 235.777 11.3736C235.529 11.1065 235.186 10.973 234.745 10.973C234.444 10.973 234.174 11.0369 233.936 11.1648C233.7 11.2926 233.514 11.4801 233.377 11.7273C233.244 11.9716 233.177 12.267 233.177 12.6136ZM241.819 16.6321C241.205 16.6321 240.67 16.4915 240.212 16.2102C239.755 15.929 239.4 15.5355 239.147 15.0298C238.894 14.5241 238.768 13.9332 238.768 13.2571C238.768 12.5781 238.894 11.9844 239.147 11.4759C239.4 10.9673 239.755 10.5724 240.212 10.2912C240.67 10.0099 241.205 9.86932 241.819 9.86932C242.433 9.86932 242.968 10.0099 243.425 10.2912C243.883 10.5724 244.238 10.9673 244.491 11.4759C244.744 11.9844 244.87 12.5781 244.87 13.2571C244.87 13.9332 244.744 14.5241 244.491 15.0298C244.238 15.5355 243.883 15.929 243.425 16.2102C242.968 16.4915 242.433 16.6321 241.819 16.6321ZM241.823 15.5625C242.221 15.5625 242.55 15.4574 242.812 15.2472C243.073 15.0369 243.266 14.7571 243.391 14.4077C243.519 14.0582 243.583 13.6733 243.583 13.2528C243.583 12.8352 243.519 12.4517 243.391 12.1023C243.266 11.75 243.073 11.4673 242.812 11.2543C242.55 11.0412 242.221 10.9347 241.823 10.9347C241.423 10.9347 241.09 11.0412 240.826 11.2543C240.565 11.4673 240.37 11.75 240.242 12.1023C240.117 12.4517 240.055 12.8352 240.055 13.2528C240.055 13.6733 240.117 14.0582 240.242 14.4077C240.37 14.7571 240.565 15.0369 240.826 15.2472C241.09 15.4574 241.423 15.5625 241.823 15.5625ZM246.232 18.9545V9.95455H247.477V11.0156H247.583C247.657 10.8793 247.763 10.7216 247.903 10.5426C248.042 10.3636 248.235 10.2074 248.482 10.0739C248.729 9.9375 249.056 9.86932 249.462 9.86932C249.991 9.86932 250.462 10.0028 250.877 10.2699C251.292 10.5369 251.617 10.9219 251.853 11.4247C252.092 11.9276 252.211 12.5327 252.211 13.2401C252.211 13.9474 252.093 14.554 251.857 15.0597C251.621 15.5625 251.298 15.9503 250.886 16.223C250.474 16.4929 250.004 16.6278 249.475 16.6278C249.077 16.6278 248.752 16.5611 248.499 16.4276C248.249 16.294 248.053 16.1378 247.911 15.9588C247.769 15.7798 247.66 15.6207 247.583 15.4815H247.506V18.9545H246.232ZM247.481 13.2273C247.481 13.6875 247.548 14.0909 247.681 14.4375C247.815 14.7841 248.008 15.0554 248.261 15.2514C248.513 15.4446 248.823 15.5412 249.19 15.5412C249.57 15.5412 249.888 15.4403 250.144 15.2386C250.4 15.0341 250.593 14.7571 250.724 14.4077C250.857 14.0582 250.924 13.6648 250.924 13.2273C250.924 12.7955 250.859 12.4077 250.728 12.0639C250.6 11.7202 250.407 11.4489 250.148 11.25C249.893 11.0511 249.573 10.9517 249.19 10.9517C248.82 10.9517 248.508 11.0469 248.252 11.2372C247.999 11.4276 247.808 11.6932 247.677 12.0341C247.546 12.375 247.481 12.7727 247.481 13.2273ZM263.841 7.77273V16.5H262.63L258.194 10.0994H258.113V16.5H256.797V7.77273H258.015L262.456 14.1818H262.537V7.77273H263.841ZM268.356 16.6321C267.743 16.6321 267.207 16.4915 266.75 16.2102C266.292 15.929 265.937 15.5355 265.684 15.0298C265.431 14.5241 265.305 13.9332 265.305 13.2571C265.305 12.5781 265.431 11.9844 265.684 11.4759C265.937 10.9673 266.292 10.5724 266.75 10.2912C267.207 10.0099 267.743 9.86932 268.356 9.86932C268.97 9.86932 269.505 10.0099 269.963 10.2912C270.42 10.5724 270.775 10.9673 271.028 11.4759C271.281 11.9844 271.407 12.5781 271.407 13.2571C271.407 13.9332 271.281 14.5241 271.028 15.0298C270.775 15.5355 270.42 15.929 269.963 16.2102C269.505 16.4915 268.97 16.6321 268.356 16.6321ZM268.36 15.5625C268.758 15.5625 269.088 15.4574 269.349 15.2472C269.61 15.0369 269.804 14.7571 269.929 14.4077C270.056 14.0582 270.12 13.6733 270.12 13.2528C270.12 12.8352 270.056 12.4517 269.929 12.1023C269.804 11.75 269.61 11.4673 269.349 11.2543C269.088 11.0412 268.758 10.9347 268.36 10.9347C267.96 10.9347 267.628 11.0412 267.363 11.2543C267.102 11.4673 266.907 11.75 266.78 12.1023C266.655 12.4517 266.592 12.8352 266.592 13.2528C266.592 13.6733 266.655 14.0582 266.78 14.4077C266.907 14.7571 267.102 15.0369 267.363 15.2472C267.628 15.4574 267.96 15.5625 268.36 15.5625ZM273.989 16.5L272.063 9.95455H273.38L274.663 14.7614H274.727L276.014 9.95455H277.33L278.609 14.7401H278.673L279.947 9.95455H281.264L279.342 16.5H278.042L276.712 11.7741H276.614L275.285 16.5H273.989Z" fill="#FBBC05"/>
</svg>
