<svg width="54" height="19" viewBox="0 0 54 19" fill="none" xmlns="http://www.w3.org/2000/svg">
<g clip-path="url(#clip0_991_481)">
<path d="M16.1341 14.5903C18.8221 14.5903 20.4187 12.4883 20.4187 8.92871C20.4187 7.58838 20.1624 6.46045 19.6717 5.58887C18.9612 4.23389 17.7381 3.50146 16.1927 3.50146C13.8929 3.50146 12.2669 5.04688 12.2669 7.21484C12.2669 9.25098 13.7317 10.7305 15.7459 10.7305C16.9837 10.7305 17.9871 10.1519 18.4852 9.14844H18.5071C18.5071 9.14844 18.5364 9.14844 18.5437 9.14844C18.5584 9.14844 18.6097 9.14844 18.6097 9.14844C18.6097 11.5654 17.6941 13.0083 16.1487 13.0083C15.2405 13.0083 14.5374 12.5103 14.2957 11.7119H12.4134C12.7283 13.4478 14.2005 14.5903 16.1341 14.5903ZM16.2 9.229C14.9842 9.229 14.1199 8.36475 14.1199 7.15625C14.1199 5.97705 15.0281 5.07617 16.2073 5.07617C17.3865 5.07617 18.2947 5.9917 18.2947 7.18555C18.2947 8.36475 17.4085 9.229 16.2 9.229ZM23.4366 13.2134C24.1324 13.2134 24.6085 12.7153 24.6085 12.0562C24.6085 11.3896 24.1324 10.8989 23.4366 10.8989C22.7481 10.8989 22.2647 11.3896 22.2647 12.0562C22.2647 12.7153 22.7481 13.2134 23.4366 13.2134ZM23.4366 7.72021C24.1324 7.72021 24.6085 7.22949 24.6085 6.57031C24.6085 5.90381 24.1324 5.41309 23.4366 5.41309C22.7481 5.41309 22.2647 5.90381 22.2647 6.57031C22.2647 7.22949 22.7481 7.72021 23.4366 7.72021ZM31.6107 14.334H33.4198V12.3638H34.848V10.7671H33.4198V3.76514H30.7538C28.8861 6.57764 27.3993 8.92871 26.4472 10.6792V12.3638H31.6107V14.334ZM28.1977 10.7012C29.4281 8.5332 30.5268 6.79736 31.5375 5.30322H31.64V10.811H28.1977V10.7012ZM38.8767 14.334H40.7663V3.76514H38.884L36.1228 5.69873V7.51514L38.7521 5.66943H38.8767V14.334Z" fill="#171721"/>
</g>
<defs>
<clipPath id="clip0_991_481">
<rect width="54" height="18" fill="white" transform="translate(0 0.333984)"/>
</clipPath>
</defs>
</svg>
